<?xml version="1.0" standalone="no"?>
<!DOCTYPE svg PUBLIC "-//W3C//DTD SVG 20010904//EN"
 "http://www.w3.org/TR/2001/REC-SVG-20010904/DTD/svg10.dtd">
<svg version="1.0" xmlns="http://www.w3.org/2000/svg"
 width="1080.000000pt" height="1080.000000pt" viewBox="0 0 1080.000000 1080.000000"
 preserveAspectRatio="xMidYMid meet">

<g transform="translate(0.000000,1080.000000) scale(0.100000,-0.100000)"
fill="#000000" stroke="none">
<path d="M4835 8630 c-25 -11 1 -11 35 0 20 6 21 8 5 8 -11 0 -29 -3 -40 -8z"/>
<path d="M4930 8630 c0 -5 -8 -10 -17 -10 -11 0 -14 -3 -7 -8 12 -8 15 -42 4
-42 -4 0 -10 -13 -13 -29 -6 -31 -79 -91 -85 -71 -2 5 -10 10 -18 10 -8 0 -14
5 -14 11 0 5 -4 7 -10 4 -5 -3 -10 -1 -10 5 0 6 -4 9 -8 6 -4 -2 -14 -1 -22 4
-11 7 -6 19 24 57 l38 48 -37 -40 c-20 -22 -53 -59 -74 -82 -37 -43 -81 -58
-81 -28 0 8 -4 15 -10 15 -14 0 -13 -14 10 -100 11 -41 20 -85 20 -98 0 -75
-304 -258 -747 -448 -206 -88 -390 -159 -527 -203 l-96 -31 -50 25 c-57 29
-70 31 -70 11 0 -8 38 -40 85 -71 53 -34 99 -74 120 -103 48 -66 158 -290 191
-392 25 -75 28 -100 28 -215 0 -113 -3 -136 -22 -176 -24 -52 -68 -94 -151
-146 -31 -20 -72 -46 -91 -59 -52 -34 -146 -64 -181 -57 -21 4 -29 2 -29 -8 0
-18 34 -39 192 -124 70 -37 125 -72 122 -77 -4 -5 -15 -7 -25 -5 -13 4 -25 -3
-35 -18 -9 -14 -33 -27 -60 -34 -51 -13 -66 -38 -58 -93 5 -30 3 -35 -23 -44
l-28 -10 27 -27 c15 -15 36 -27 48 -27 15 0 28 -16 50 -63 16 -35 39 -72 50
-82 15 -13 20 -31 20 -65 0 -41 4 -50 37 -79 27 -24 38 -29 44 -19 15 24 17 3
4 -35 -12 -36 -11 -43 24 -125 33 -77 40 -87 65 -90 31 -4 44 -26 27 -46 -6
-7 -9 -21 -5 -30 4 -12 -3 -20 -27 -31 -30 -12 -31 -14 -10 -15 19 0 22 -4 18
-22 -3 -13 -9 -51 -13 -84 -6 -59 -8 -62 -36 -68 -17 -3 -141 -7 -277 -8 -220
-1 -235 -2 -141 -10 58 -5 132 -13 165 -18 50 -7 39 -8 -59 -5 -166 6 -138
-12 44 -30 78 -7 145 -17 149 -22 3 -4 26 -9 51 -9 61 -2 174 -34 161 -47 -6
-6 -43 -4 -103 4 -72 10 -87 15 -68 21 17 5 10 7 -25 4 -27 -2 -66 -10 -85
-18 l-35 -14 70 -1 c39 -1 109 -5 158 -8 66 -5 91 -4 103 6 13 11 17 10 25 -4
6 -9 21 -17 34 -17 14 0 25 -4 25 -9 0 -12 -108 -23 -147 -15 -23 5 -37 2 -49
-10 -12 -12 -25 -15 -46 -10 -22 4 -29 3 -23 -6 5 -8 -6 -11 -41 -10 -95 3
-154 0 -154 -9 0 -5 60 -10 134 -13 74 -2 138 -7 143 -11 12 -13 -17 -25 -72
-32 -27 -3 -77 -12 -110 -20 -33 -7 -107 -19 -165 -25 -100 -11 -160 -30 -94
-30 17 0 39 -7 50 -15 10 -8 28 -14 39 -14 l20 0 -20 9 c-26 11 100 11 135 0
20 -7 16 -8 -22 -9 -53 -1 -72 -17 -32 -27 16 -4 22 -9 14 -14 -8 -5 0 -12 21
-19 41 -14 61 -13 29 2 -22 10 -16 12 55 17 44 4 68 7 53 8 -26 2 -41 22 -17
22 5 0 7 5 3 11 -5 9 17 11 84 7 68 -4 96 -2 109 8 16 12 9 13 -49 14 -39 0
-70 5 -74 11 -5 9 23 10 112 4 65 -4 148 -9 184 -10 91 -2 100 -4 100 -14 0
-5 -8 -12 -17 -14 -10 -3 36 -6 102 -7 171 -3 193 -12 79 -33 -51 -9 -113 -17
-138 -17 -26 0 -71 -9 -101 -19 -57 -20 -93 -18 -166 13 -22 9 -40 11 -49 6
-8 -5 -12 -10 -10 -12 60 -39 89 -46 165 -42 119 6 189 4 199 -7 6 -5 -29 -9
-95 -9 -57 0 -147 -5 -199 -10 -52 -5 -97 -5 -100 -1 -3 5 -25 12 -49 16 -34
6 -42 4 -36 -6 6 -9 3 -11 -9 -6 -10 4 -27 1 -38 -7 -18 -13 -14 -14 41 -9 46
4 69 1 97 -12 30 -14 74 -19 198 -23 163 -5 173 -13 34 -28 -67 -7 -70 -8 -38
-15 42 -10 190 0 190 12 0 5 30 10 68 10 69 1 209 15 182 18 -8 0 -71 8 -140
16 -69 8 -152 16 -185 16 l-60 2 74 7 c59 5 77 11 88 26 13 20 15 20 129 3 63
-9 129 -23 145 -29 16 -7 32 -10 36 -7 11 12 -52 28 -187 48 -74 12 -137 23
-139 25 -2 2 54 4 126 4 71 0 133 3 136 7 4 3 -1 12 -10 18 -14 11 -7 14 45
20 34 4 64 11 67 16 9 13 -35 36 -82 44 -43 7 -71 25 -30 19 178 -25 187 -27
172 -38 -11 -8 13 -11 102 -12 103 -1 124 -4 163 -24 42 -21 43 -23 22 -31
-12 -5 -22 -10 -22 -11 0 -2 66 -4 148 -5 128 -2 159 1 238 22 97 25 169 53
144 54 -8 1 -100 3 -205 5 -376 7 -506 15 -662 43 -148 26 -193 43 -116 43 20
0 70 -9 112 -21 66 -19 86 -20 175 -12 56 5 132 8 169 5 51 -3 74 0 92 12 13
9 32 17 42 18 10 0 -13 5 -52 10 -73 10 -163 11 -350 6 -72 -2 -117 1 -130 9
l-20 12 20 6 c11 3 49 21 85 38 65 32 66 32 225 33 111 1 183 6 236 18 108 24
379 38 398 20 36 -33 -48 -65 -122 -46 -23 6 -82 13 -132 16 -76 3 -87 2 -71
-9 10 -8 56 -24 102 -36 46 -12 82 -24 80 -26 -8 -8 -194 17 -237 32 -34 12
-53 14 -92 5 -26 -5 -89 -11 -140 -11 -51 -1 -105 -5 -122 -8 -58 -14 100 -25
176 -12 103 17 133 14 160 -13 20 -20 43 -26 150 -39 69 -9 139 -21 155 -28
16 -6 72 -12 124 -14 62 -2 107 -8 130 -19 35 -16 35 -16 -47 -11 -71 5 -82 3
-77 -10 9 -23 154 -21 219 4 27 11 74 24 102 31 48 11 57 10 99 -11 44 -21 55
-22 194 -16 90 4 181 2 230 -4 90 -12 138 -7 170 19 21 17 21 18 -41 19 -34 1
-76 5 -92 9 l-29 6 29 30 c15 17 24 29 18 26 -5 -2 -28 -12 -50 -23 -32 -14
-73 -19 -202 -23 -89 -2 -174 -1 -190 3 -26 6 -24 8 33 26 62 19 116 59 80 59
-28 0 -8 19 28 25 26 5 43 1 75 -19 22 -14 51 -26 63 -27 21 -1 20 -2 -7 -14
-48 -22 -16 -17 60 10 66 23 167 35 137 16 -11 -7 -12 -12 -1 -29 18 -29 52
-42 107 -41 47 0 108 17 70 18 -10 1 -18 6 -18 11 0 6 -9 10 -19 10 -11 0 -23
5 -26 10 -3 6 -19 10 -36 10 -22 0 -29 5 -29 19 0 11 9 23 20 26 11 4 32 17
48 29 52 44 153 63 209 41 33 -13 58 -14 159 -6 65 5 162 7 214 5 107 -4 93 4
-57 33 -71 14 -91 14 -140 3 -32 -7 -62 -16 -66 -20 -11 -9 -57 0 -57 11 0 5
5 9 12 9 6 0 9 2 7 5 -11 11 -223 -25 -264 -45 -55 -27 -141 -40 -264 -40 -83
0 -102 3 -153 27 -33 16 -58 34 -58 43 0 13 2 13 9 1 7 -11 13 -12 23 -4 7 6
36 14 63 17 86 12 149 34 200 71 53 37 81 45 71 20 -6 -18 7 -19 37 -4 21 10
21 10 3 -5 -11 -9 -22 -16 -25 -16 -3 0 -15 -13 -26 -27 l-19 -27 34 26 c66
49 91 57 150 49 55 -8 55 -8 25 -20 -53 -21 -74 -33 -97 -60 l-23 -26 25 21
c38 33 93 59 98 46 2 -6 25 4 53 23 58 42 71 44 38 9 l-24 -27 30 6 c17 3 48
10 70 16 22 6 63 13 90 16 l50 6 -24 -21 c-13 -11 -29 -20 -37 -20 -7 0 -15
-4 -18 -9 -3 -5 40 -9 97 -9 56 -1 148 -4 205 -8 67 -4 102 -3 102 3 0 10 -28
14 -177 30 -29 2 -53 9 -53 13 0 10 63 30 93 30 9 0 17 5 17 10 0 6 -11 10
-25 10 -33 0 -95 26 -95 40 0 6 9 29 20 50 28 54 56 183 70 315 22 210 64 321
135 360 48 25 135 129 135 161 0 19 5 23 23 21 18 -2 23 3 25 33 2 22 17 51
43 81 42 50 78 122 79 154 0 11 -7 31 -16 43 -15 22 -13 26 57 108 39 46 82
93 95 103 13 11 24 24 24 30 0 19 77 63 98 56 11 -3 23 -1 26 4 7 10 157 71
176 71 6 0 8 -6 4 -12 -4 -7 2 -5 13 5 11 9 32 17 46 17 15 0 27 5 27 10 0 13
45 31 82 35 15 1 33 7 40 12 7 6 33 21 58 33 25 13 40 25 33 27 -7 2 -21 -1
-33 -7 -11 -6 -24 -8 -29 -5 -5 3 -30 41 -56 85 -26 44 -49 80 -51 80 -5 0 17
-43 56 -110 17 -28 30 -55 30 -60 0 -4 -73 -33 -162 -63 -90 -31 -189 -65
-222 -77 -32 -11 -60 -20 -62 -18 -1 2 14 21 34 43 21 22 71 80 111 128 41 48
76 85 79 82 3 -2 21 19 39 48 19 28 49 67 66 85 30 32 24 43 -12 21 -14 -9
-29 -8 -64 4 -57 19 -62 13 -7 -9 22 -9 40 -20 40 -24 0 -11 -47 -56 -122
-118 -38 -30 -68 -56 -68 -58 0 -12 24 0 57 29 61 53 26 10 -96 -121 -115
-121 -168 -166 -193 -160 -7 1 -24 -5 -38 -14 -14 -9 -38 -20 -55 -23 l-30 -6
40 33 c50 42 105 94 85 81 -8 -6 -55 -40 -103 -77 -96 -72 -123 -83 -107 -40
16 41 12 238 -6 307 -40 154 -161 315 -296 395 -16 9 -28 24 -28 33 0 15 -8
17 -57 12 -32 -4 -62 -12 -68 -19 -5 -8 -26 -16 -45 -19 l-35 -5 30 14 30 15
-27 1 c-14 0 -39 -11 -55 -24 -15 -12 -38 -28 -51 -35 -34 -18 -525 -182 -530
-177 -5 5 27 95 39 111 11 15 -48 45 -95 48 l-38 2 -24 75 c-37 117 -38 114
63 145 48 15 102 29 120 32 30 5 89 53 64 53 -6 0 -37 -9 -68 -20 -32 -11 -62
-20 -68 -20 -8 0 -11 20 -9 58 l3 57 -8 -53 c-10 -61 -22 -78 -57 -85 -24 -4
-26 -3 -19 27 28 120 -11 220 -136 350 -94 99 -181 167 -327 257 -118 72 -121
90 -5 30 164 -85 392 -282 458 -395 37 -63 43 -58 8 7 -55 103 -287 305 -455
395 -73 40 -87 58 -35 48 65 -13 265 -148 385 -260 127 -119 194 -232 212
-361 9 -57 9 -56 4 18 -3 43 -9 89 -14 103 -5 13 -6 24 -1 24 5 0 -3 13 -18
28 -44 48 -83 110 -76 121 3 6 24 11 45 11 43 0 106 26 114 46 4 10 -5 12 -37
8 -26 -4 -63 0 -97 10 -32 10 -68 14 -88 10 -30 -6 -38 -2 -75 34 -61 58 -171
138 -255 184 -59 33 -70 43 -61 54 9 11 7 14 -10 14 -12 0 -32 -5 -43 -11 -12
-6 -82 -15 -157 -19 -123 -6 -128 -7 -46 -8 54 -1 85 -6 80 -11 -6 -5 -90 -37
-188 -71 -155 -54 -182 -61 -205 -51 -25 10 -25 10 -8 -4 18 -14 18 -15 -5
-23 -118 -44 -140 -52 -144 -52 -6 0 -55 165 -55 184 0 14 4 15 23 6 20 -10
20 -9 -3 9 l-25 21 100 2 100 2 -105 5 c-98 6 -105 8 -108 27 -2 17 5 24 30
33 19 7 63 44 105 89 l72 77 73 0 c40 -1 101 -5 134 -9 55 -8 67 -6 118 17 31
14 56 29 56 32 0 3 -10 0 -22 -6 -12 -6 -45 -12 -74 -13 -50 -1 -54 1 -110 55
-63 59 -104 87 -104 69z m-257 -565 l2 -49 -110 -39 c-60 -21 -157 -56 -215
-77 -58 -21 -107 -36 -110 -33 -3 3 26 33 64 67 38 35 71 71 72 81 2 15 -2 13
-19 -7 -12 -15 -31 -29 -43 -32 -11 -4 -32 -19 -45 -34 l-24 -27 26 23 c14 12
29 22 34 22 13 0 -33 -46 -91 -90 -53 -42 -76 -52 -53 -23 24 28 -72 -47 -202
-159 -68 -59 -132 -108 -142 -108 -10 0 -40 12 -68 26 -28 14 -53 24 -54 22
-2 -2 22 -28 53 -58 31 -30 46 -43 33 -27 -14 15 -21 27 -17 27 15 0 106 -51
106 -59 0 -5 24 -34 53 -64 50 -53 96 -78 141 -76 12 0 0 6 -26 13 -25 7 -58
20 -72 29 -24 16 -62 74 -54 83 7 7 179 -88 185 -102 3 -8 11 -14 17 -14 14 0
40 -75 31 -89 -3 -5 -30 -23 -60 -40 -30 -17 -55 -34 -55 -38 0 -19 25 -73 35
-73 23 0 132 -59 138 -75 10 -24 9 -63 -2 -69 -5 -3 -105 60 -222 141 -261
180 -397 271 -411 275 -22 8 111 234 190 326 47 54 58 61 183 111 121 48 234
103 444 215 l70 37 -34 -30 c-19 -17 -32 -33 -28 -37 6 -7 112 80 125 102 4 7
32 31 62 52 l55 40 18 -56 c10 -32 19 -79 20 -107z m690 119 c164 -84 397
-268 469 -372 58 -84 80 -184 58 -264 -18 -64 -27 -50 -26 40 0 48 -3 95 -9
104 -7 12 -9 -14 -7 -86 4 -110 1 -118 -50 -131 -24 -6 -28 -4 -33 22 -13 57
-36 135 -40 132 -1 -2 6 -38 16 -78 12 -47 16 -78 10 -84 -9 -9 -775 -267
-792 -267 -13 0 -17 55 -6 76 55 99 67 128 67 159 0 64 -12 75 -84 75 l-63 0
-11 38 c-7 23 -8 38 -2 40 5 2 0 22 -12 45 -23 46 -40 97 -31 97 3 0 12 -8 20
-17 8 -10 5 -2 -7 17 -24 40 -31 55 -53 125 -9 27 -14 52 -11 55 4 3 70 -60
147 -140 78 -80 128 -127 110 -105 -17 22 -88 96 -157 163 -119 117 -139 142
-116 142 24 0 214 -182 313 -299 20 -25 37 -40 37 -34 0 6 -32 46 -72 88 -67
71 -109 113 -243 238 -27 26 -45 47 -38 47 30 0 295 -238 382 -345 l33 -40
-33 48 c-40 57 -221 236 -303 297 -41 31 -54 46 -43 48 30 6 245 -174 326
-272 58 -70 77 -86 40 -35 -44 62 -136 154 -233 232 -55 45 -94 83 -88 85 15
5 86 -45 181 -126 42 -36 63 -51 46 -33 -16 18 -70 65 -119 104 -48 39 -83 73
-77 75 43 14 307 -221 401 -355 23 -35 45 -63 47 -63 2 0 1 6 -3 13 -59 100
-222 280 -317 348 -93 67 -102 76 -47 49 143 -72 336 -246 436 -395 19 -27 34
-45 34 -40 0 53 -245 305 -388 399 -123 80 -94 88 36 10 125 -76 321 -266 371
-361 17 -35 34 -63 37 -63 8 0 -26 74 -51 111 -52 74 -228 240 -318 299 -127
83 -144 98 -62 55 198 -105 407 -299 470 -437 13 -29 24 -47 24 -40 2 25 -49
111 -108 183 -65 82 -218 207 -342 283 -44 26 -78 51 -75 53 8 8 110 -42 178
-88 186 -125 360 -319 403 -450 9 -28 19 -49 21 -46 8 8 -30 104 -61 153 -97
152 -305 337 -478 424 -16 8 -24 16 -18 18 16 5 147 -59 202 -99 26 -19 83
-68 127 -109 125 -118 129 -114 6 7 -89 86 -132 120 -208 162 -53 29 -95 55
-92 58 2 2 34 -9 70 -26 79 -36 87 -32 14 6 -62 31 -43 45 26 19 118 -46 377
-271 489 -426 17 -24 17 -24 0 10 -10 19 -72 89 -138 156 -124 125 -256 231
-335 268 -44 20 -44 21 -17 24 59 7 198 -83 353 -231 112 -105 179 -191 209
-269 14 -34 23 -49 20 -33 -12 59 -55 131 -133 220 -99 113 -270 254 -370 305
-56 28 -48 38 11 12 157 -69 405 -290 493 -438 13 -23 31 -72 39 -110 13 -67
14 -67 8 -14 -3 30 -13 73 -23 95 -59 136 -312 375 -498 470 -52 27 -36 34 21
10 51 -21 59 -18 15 6 -34 18 -47 29 -33 29 3 0 29 -12 58 -26z m-663 -213
c13 -25 13 -34 0 -26 -16 10 -32 45 -21 45 6 0 15 -9 21 -19z m-6 -41 c29 -33
47 -70 33 -70 -2 0 -25 25 -51 55 -54 63 -38 77 18 15z m-25 -26 c29 -31 61
-74 71 -95 41 -80 17 -66 -60 36 -44 58 -80 107 -80 110 0 16 24 -2 69 -51z
m7 -69 c75 -94 100 -141 125 -238 25 -96 24 -111 -6 -125 -34 -16 -33 -17 -38
21 l-4 32 -1 -36 c-1 -22 -10 -43 -23 -55 -16 -14 -20 -26 -15 -52 7 -44 17
-55 98 -107 55 -36 68 -50 68 -70 0 -34 -27 -46 -295 -128 -247 -76 -299 -86
-313 -60 -8 13 -2 26 26 59 39 45 92 131 73 120 -6 -4 -29 -34 -51 -67 -23
-32 -45 -59 -51 -59 -14 0 18 54 65 106 30 35 37 50 32 69 -7 27 8 35 18 10 3
-8 12 -12 21 -9 8 3 15 1 15 -6 0 -6 4 -9 9 -6 5 3 29 -6 53 -20 l43 -25 -50
6 c-27 4 -59 12 -70 18 -18 9 -18 8 -7 -6 8 -9 10 -22 6 -29 -6 -10 -5 -10 7
-2 14 11 100 5 177 -11 40 -9 41 0 1 20 -26 14 -29 18 -17 32 12 15 11 15 -9
4 -19 -9 -27 -9 -48 5 -14 9 -25 20 -25 25 0 5 -6 6 -13 3 -8 -3 -24 3 -36 13
-22 18 -22 18 -6 88 32 138 -15 301 -119 413 -16 17 -25 32 -19 32 31 0 109
-117 144 -215 10 -27 18 -45 18 -39 2 21 -39 125 -60 157 -13 18 -40 53 -62
80 -47 56 -28 64 24 10 56 -59 81 -101 116 -193 18 -47 32 -79 33 -72 1 41
-67 180 -122 248 -33 42 -57 78 -55 81 9 9 65 -39 95 -81 60 -84 115 -217 138
-331 13 -68 13 -68 9 -15 -10 116 -100 317 -178 398 -23 23 -36 42 -30 42 24
0 76 -56 133 -143 65 -98 79 -110 29 -25 -27 46 -56 85 -128 172 -15 18 -15
18 5 8 38 -20 110 -100 145 -162 48 -85 66 -107 30 -35 -17 33 -49 83 -71 110
-77 99 -82 105 -69 105 40 0 173 -185 235 -328 19 -42 34 -70 34 -61 0 46
-133 278 -208 361 -38 42 -37 60 2 35 45 -30 143 -172 215 -312 11 -22 20 -36
21 -32 1 27 -122 235 -186 313 -39 47 -43 59 -14 44 38 -21 137 -151 189 -250
53 -102 74 -130 46 -62 -33 79 -126 222 -187 288 -21 22 -35 44 -31 47 11 11
53 -27 119 -108z m-409 -22 c4 -10 27 -43 52 -73 24 -30 56 -80 70 -110 24
-50 26 -67 26 -180 0 -69 -3 -133 -7 -142 -6 -15 -22 -10 -127 43 l-121 60
-26 87 c-46 155 -55 182 -66 182 -6 0 -7 -8 -3 -17 12 -31 47 -214 42 -219 -5
-6 -130 56 -160 78 -18 13 -16 19 35 118 46 91 59 108 101 134 29 18 66 31 97
34 28 2 50 8 50 13 0 16 31 9 37 -8z m-516 -60 c-15 -30 -162 -183 -223 -234
l-57 -47 -55 29 c-31 17 -58 34 -61 39 -9 14 80 85 157 125 68 36 224 104 241
105 4 0 3 -8 -2 -17z m226 -85 c-33 -83 -62 -138 -72 -138 -7 0 -23 9 -36 20
l-24 20 60 55 c59 54 82 68 72 43z m-594 -72 c-41 -39 -64 -44 -83 -21 -10 12
-7 17 16 26 62 24 99 36 102 34 2 -2 -14 -19 -35 -39z m225 -52 c-39 -91 -71
-118 -108 -94 -12 9 -3 21 50 70 35 32 66 57 68 56 1 -2 -3 -16 -10 -32z
m1336 -60 c12 -32 6 -54 -14 -54 -16 0 -19 6 -18 35 1 36 21 48 32 19z m49
-18 c5 -15 6 -30 3 -33 -9 -9 -15 0 -26 36 -11 41 9 38 23 -3z m-1536 -145
c37 -69 85 -175 106 -236 36 -106 38 -114 35 -220 -3 -100 -6 -116 -36 -179
-18 -38 -26 -63 -18 -57 8 6 24 35 37 64 22 47 24 66 24 197 0 144 -1 145 -38
238 -21 51 -35 97 -32 102 5 9 -80 190 -90 190 -6 0 9 -40 35 -90 36 -70 13
-43 -34 41 -25 45 -46 83 -46 86 0 8 53 -29 68 -46 39 -49 138 -279 166 -389
26 -97 15 -212 -30 -326 -8 -21 -13 -40 -11 -43 7 -6 46 98 58 157 26 122 -8
273 -108 489 -24 52 -41 96 -39 98 14 14 96 -157 149 -307 38 -109 49 -271 23
-346 -19 -57 -13 -72 9 -19 24 57 29 126 15 212 -15 96 -67 259 -110 342 -17
35 -29 68 -27 74 2 7 11 -3 21 -20 19 -38 31 -44 20 -11 -7 22 -6 22 27 -3 48
-37 110 -195 152 -384 4 -16 5 -15 6 6 1 34 -34 168 -69 257 -15 39 -26 72
-25 72 31 0 76 -73 115 -191 16 -47 24 -103 30 -214 l8 -150 -2 155 c-1 146
-3 160 -32 240 -17 47 -35 94 -38 105 -8 20 -8 20 11 0 10 -11 42 -35 70 -54
29 -18 50 -37 47 -42 -3 -5 0 -17 6 -26 9 -16 10 -15 5 5 -4 12 -4 22 -1 22 4
0 40 -25 81 -55 88 -65 97 -87 99 -237 1 -64 4 -93 11 -87 13 13 11 153 -4
203 -13 49 -8 55 22 30 12 -11 38 -31 59 -44 52 -34 70 -72 76 -154 3 -39 10
-74 16 -78 8 -5 7 -8 -1 -8 -9 0 -12 -12 -10 -35 2 -30 5 -33 25 -28 32 8 27
-4 -10 -24 -26 -13 -29 -18 -15 -21 14 -3 15 -7 7 -17 -7 -8 -7 -15 -1 -19 5
-3 12 7 16 24 4 16 13 30 21 30 17 0 19 -17 3 -22 -20 -7 -1 -79 22 -85 10 -3
16 -9 13 -14 -3 -5 -10 -7 -15 -4 -5 4 -9 1 -9 -4 0 -6 6 -11 14 -11 13 0 56
-126 59 -175 2 -25 -30 -32 -36 -8 -3 11 -5 6 -6 -12 -1 -44 11 -57 44 -49 25
6 27 5 21 -11 -4 -11 -1 -22 6 -26 11 -7 11 -12 0 -29 -10 -17 -10 -20 3 -20
8 0 15 -4 15 -10 0 -21 -37 -9 -50 16 -12 22 -12 27 0 34 12 8 10 10 -7 10
-20 0 -22 -4 -16 -31 l6 -32 -39 8 c-21 4 -41 10 -44 15 -3 4 -18 7 -35 7 -16
-1 -52 2 -80 5 -50 7 -49 7 10 -8 77 -19 279 -53 284 -48 3 2 -3 21 -13 40 -9
20 -15 39 -12 41 2 3 13 -16 25 -41 19 -44 22 -46 58 -45 23 1 29 3 16 6 -18
3 -27 18 -43 72 -31 106 -36 136 -19 126 56 -33 231 -194 224 -205 -3 -4 13
-10 35 -14 24 -4 45 -15 54 -28 15 -22 17 -22 45 -5 16 9 32 17 35 17 3 0 6
-31 6 -69 0 -68 1 -70 28 -74 22 -3 21 -4 -10 -6 -43 -1 -76 31 -103 102 l-17
45 -136 7 c-219 11 -456 50 -641 105 -98 29 -83 38 19 11 45 -12 86 -21 92
-19 6 2 -35 17 -91 32 -55 16 -101 30 -101 33 0 2 7 15 16 28 15 23 14 26 -24
67 -37 39 -45 43 -90 43 -40 0 -59 -6 -94 -32 -33 -24 -48 -29 -61 -21 -22 12
-54 2 -90 -28 -16 -13 -37 -24 -48 -24 -16 0 -19 6 -18 33 2 17 2 62 1 100 -2
64 -4 68 -33 86 -21 13 -26 21 -17 25 7 3 -2 5 -19 3 -18 -2 -33 -1 -33 2 0 3
22 27 48 53 90 88 130 201 118 329 -12 135 -101 379 -192 530 -19 31 -34 61
-34 65 1 20 44 -47 107 -165z m1423 134 c0 -39 -14 -47 -24 -12 -9 35 -7 47 9
47 10 0 15 -11 15 -35z m-55 -24 c0 -36 -22 -37 -27 -1 -4 24 -1 30 11 28 9
-2 16 -13 16 -27z m1018 -41 c10 -30 20 -73 23 -95 6 -38 4 -42 -32 -65 -21
-14 -40 -34 -42 -45 -6 -32 -19 -42 -118 -95 -53 -29 -102 -64 -114 -81 -23
-32 -68 -59 -97 -59 -10 1 1 11 27 25 59 31 45 31 -30 0 -65 -28 -109 -32
-130 -12 -12 10 -12 9 -2 -4 6 -9 9 -19 5 -23 -4 -4 0 -4 10 0 33 12 17 -12
-22 -34 -45 -25 -58 -28 -42 -8 7 8 -10 2 -38 -12 -27 -15 -48 -29 -46 -31 3
-2 47 2 99 9 l94 13 53 -28 c73 -37 182 -127 242 -200 146 -175 178 -415 82
-605 -13 -25 -62 -82 -109 -127 -47 -46 -83 -83 -79 -83 4 0 -6 -13 -22 -30
-35 -37 -48 -30 -14 7 21 25 21 26 2 9 -22 -18 -23 -18 -33 9 -6 15 -13 25
-16 22 -3 -2 5 -37 19 -76 23 -70 23 -70 3 -71 -12 0 -61 -4 -111 -8 l-90 -9
120 -3 c66 -1 111 -5 100 -7 -11 -3 -24 -11 -28 -19 -10 -17 -47 -18 -48 -1 0
10 -2 10 -6 0 -7 -18 -30 -16 -37 3 -5 14 -18 16 -85 10 -63 -6 -86 -4 -110 8
-23 12 -57 16 -138 14 l-108 -2 100 -5 100 -6 -93 -8 c-160 -15 -792 6 -792
25 0 7 14 8 38 4 20 -3 147 -8 282 -10 l245 -5 -239 10 c-253 9 -331 18 -325
34 2 6 15 9 29 7 24 -3 25 -3 5 12 -17 14 -18 17 -5 26 24 16 55 7 58 -17 4
-29 13 -31 182 -37 129 -5 142 -4 115 9 -24 11 -26 14 -10 14 l20 2 -20 11
c-11 6 -26 20 -33 30 -10 14 -26 18 -69 18 l-55 0 6 -35 7 -35 -61 0 c-33 0
-60 4 -60 10 0 6 10 10 23 11 21 0 21 1 2 9 -11 5 -16 9 -11 9 5 1 3 7 -3 14
-6 8 -8 16 -5 20 8 7 -63 27 -99 27 -26 0 -28 -2 -21 -34 6 -33 5 -35 -29 -41
-46 -9 -190 19 -231 44 -18 11 -41 30 -52 42 l-19 22 50 -7 c111 -15 155 -28
191 -57 20 -16 44 -29 53 -28 13 0 14 1 1 6 -8 3 -23 14 -32 24 -17 17 -16 18
5 22 14 3 9 5 -14 6 -19 0 -39 5 -45 10 -5 6 -45 16 -89 24 -71 13 -75 15 -34
16 25 1 126 -9 225 -21 98 -12 222 -22 274 -23 157 -2 637 -15 765 -20 130 -6
149 -14 160 -66 10 -46 28 -35 22 12 -10 74 -3 73 -325 81 -361 9 -661 24
-867 44 -205 21 -237 26 -243 43 -4 11 5 13 42 9 39 -5 45 -3 35 8 -6 8 -15
12 -19 9 -9 -6 -25 33 -22 52 3 15 -24 71 -46 96 -8 9 -26 17 -40 17 -23 0
-24 -3 -19 -42 2 -24 8 -51 12 -60 4 -10 3 -18 -3 -18 -9 0 -62 140 -62 162 0
4 18 1 40 -7 31 -11 382 -85 403 -85 2 0 2 -11 0 -24 -3 -13 6 -45 21 -74 26
-51 21 -76 -9 -46 -8 9 -26 37 -40 63 -13 25 -33 57 -45 69 -20 22 -24 22 -38
8 -13 -13 -14 -21 -4 -54 7 -21 21 -47 32 -57 15 -14 17 -20 8 -26 -8 -5 -22
1 -36 14 -22 20 -23 20 -17 2 6 -17 5 -17 -4 -5 -7 8 -17 24 -23 35 -10 18
-10 19 7 5 14 -12 12 -4 -8 36 -30 58 -49 77 -74 72 -24 -5 -20 -41 13 -112
25 -54 25 -55 77 -60 165 -17 316 -28 595 -42 312 -16 314 -16 333 4 18 20 18
21 -3 24 -30 4 -34 26 -6 37 22 10 22 10 -5 10 -24 1 -28 -3 -27 -21 4 -46 2
-48 -61 -48 -42 0 -58 3 -53 11 4 7 7 35 8 63 l1 50 55 17 c70 23 120 24 120
4 0 -8 -17 -19 -42 -25 -60 -15 -66 -18 -42 -19 12 -1 35 4 53 10 38 13 50 6
33 -21 -10 -17 -10 -20 3 -20 18 0 20 -26 3 -36 -7 -5 -4 -10 11 -16 15 -5 21
-14 17 -23 -5 -13 12 -15 117 -13 83 1 99 3 50 5 l-72 4 -12 42 c-6 23 -35
125 -64 227 -29 102 -76 271 -104 375 -27 105 -59 219 -70 254 -21 68 -20 81
7 81 12 0 10 4 -7 13 -26 12 -38 44 -82 211 l-21 80 21 17 c23 19 698 246 746
251 17 2 36 9 44 16 25 24 45 9 64 -48z m-1063 0 c0 -9 -39 -44 -44 -39 -2 2
-7 14 -10 27 -8 23 8 32 17 10 3 -8 6 -6 6 4 1 11 6 15 16 12 8 -4 15 -9 15
-14z m126 -128 c-12 -11 -37 10 -56 49 -11 24 -20 45 -20 47 0 10 30 -21 30
-32 0 -6 9 -22 20 -36 l19 -25 -14 49 c-8 26 -12 53 -8 60 4 6 13 -15 21 -48
7 -32 10 -61 8 -64z m25 31 c-8 -14 -10 -8 -11 28 0 25 3 49 8 53 11 12 14
-62 3 -81z m-691 42 c44 -23 45 -23 19 -30 -46 -11 -72 -2 -80 28 -9 34 1 34
61 2z m585 -15 c27 -30 12 -34 -15 -5 -13 14 -19 25 -13 25 5 0 18 -9 28 -20z
m1950 -1 c4 -6 13 -8 21 -5 17 7 139 -84 139 -104 1 -8 6 -14 12 -13 15 3 77
-69 114 -132 57 -98 68 -155 66 -316 l-2 -146 -42 -84 c-40 -81 -100 -165
-110 -155 -3 2 6 24 20 48 26 44 67 167 66 197 0 9 -10 -18 -22 -59 -13 -42
-36 -100 -51 -130 -32 -60 -93 -140 -108 -140 -5 0 -6 5 -3 10 3 6 -24 -12
-60 -40 -66 -50 -146 -97 -115 -68 8 8 48 40 87 72 71 57 124 118 157 183 28
56 17 50 -15 -7 -54 -99 -156 -187 -321 -278 -66 -37 -78 -40 -54 -13 11 12
14 21 7 26 -6 3 -11 19 -11 35 0 33 -40 70 -74 70 -16 -1 -14 -4 11 -15 41
-18 58 -52 48 -101 -5 -28 -23 -53 -68 -99 -67 -65 -154 -122 -167 -109 -17
18 -87 269 -78 281 11 13 78 31 168 42 63 8 63 9 17 10 -26 0 -82 -6 -123 -15
-42 -8 -78 -14 -80 -11 -2 2 -7 18 -10 35 -6 27 -2 33 27 51 39 24 32 28 -11
6 l-29 -15 -25 83 c-13 45 -30 101 -36 125 -6 24 -14 50 -17 59 -5 12 -3 14 8
8 10 -7 9 -1 -4 18 -10 15 -22 39 -28 55 -8 24 -6 23 26 -13 41 -45 37 -32
-12 36 -44 61 -41 74 4 24 33 -37 34 -37 11 -5 -56 78 -78 113 -78 124 1 15
73 -67 112 -127 17 -26 33 -46 35 -43 5 5 -57 94 -128 184 -23 29 -39 55 -36
58 4 5 103 -109 175 -201 13 -17 20 -23 16 -15 -13 25 -78 110 -148 194 -65
78 -81 113 -30 65 25 -23 140 -158 196 -229 15 -19 27 -32 28 -29 0 10 -105
145 -179 229 -37 41 -73 84 -81 94 -14 18 -14 18 5 8 42 -22 182 -181 249
-282 41 -63 49 -61 9 3 -44 71 -107 148 -192 236 -86 88 -100 116 -32 62 56
-44 142 -140 213 -238 33 -46 63 -83 65 -83 18 0 -121 179 -211 273 -42 44
-76 81 -76 83 0 2 7 4 16 4 24 0 115 -92 205 -208 87 -113 108 -137 94 -112
-20 35 -134 181 -198 253 -38 43 -67 80 -64 83 9 10 160 -146 219 -226 31 -41
65 -94 77 -117 22 -43 36 -58 24 -25 -20 54 -114 181 -236 317 -25 27 -44 52
-42 53 2 2 25 -13 50 -34 77 -65 173 -183 217 -270 24 -46 44 -81 46 -79 5 5
-58 126 -91 175 -17 25 -66 82 -109 128 -76 81 -97 113 -60 93 25 -13 141
-137 190 -202 23 -30 57 -86 77 -123 19 -37 35 -62 35 -56 0 39 -124 222 -219
322 -62 66 -74 91 -33 69 28 -15 115 -113 169 -190 48 -68 73 -99 58 -71 -21
40 -105 152 -158 213 -33 37 -57 71 -53 74 12 12 141 -132 202 -224 33 -50 65
-98 72 -109 7 -10 5 -3 -4 16 -26 54 -113 179 -163 235 -77 85 -85 95 -75 95
6 0 30 -15 53 -32 36 -28 81 -81 174 -208 18 -25 18 -25 1 5 -33 59 -103 151
-143 190 -40 38 -50 55 -33 55 13 0 139 -131 178 -185 56 -78 94 -161 120
-260 17 -65 22 -76 17 -40 -15 131 -114 313 -232 430 -34 33 -61 63 -61 67 0
33 116 -73 192 -174 51 -69 72 -90 41 -40 -29 46 -109 145 -147 181 -40 38
-44 51 -19 51 30 0 157 -143 200 -226 42 -82 85 -205 98 -284 5 -25 10 -40 12
-33 7 19 -35 180 -65 252 -34 81 -92 167 -161 241 -28 30 -51 58 -51 62 0 21
28 2 90 -60 107 -107 191 -299 220 -504 l9 -63 -4 76 c-9 160 -103 381 -210
497 -94 101 -54 96 45 -5 90 -92 123 -161 176 -368 18 -71 33 -121 34 -110 0
29 -35 168 -63 251 -41 117 -76 178 -144 248 -69 72 -76 92 -19 56 87 -53 167
-193 215 -375 16 -60 30 -103 30 -95 1 24 -48 201 -71 255 -29 70 -83 152
-131 203 -28 28 -36 42 -25 42 24 0 112 -102 154 -177 21 -36 50 -97 66 -137
16 -39 26 -57 23 -41 -13 64 -103 232 -159 299 -32 37 -56 69 -53 72 8 9 88
-57 118 -99 39 -51 108 -198 139 -290 12 -38 24 -66 26 -64 7 7 -56 177 -91
247 -38 76 -114 179 -146 198 l-22 14 24 12 c19 10 29 10 50 0 73 -36 176
-211 243 -414 41 -122 48 -120 10 2 -14 46 -53 139 -86 207 -47 98 -71 135
-114 178 -50 48 -53 53 -30 53 14 0 28 -5 31 -11z m-1985 -9 c0 -5 -2 -10 -4
-10 -3 0 -8 5 -11 10 -3 6 -1 10 4 10 6 0 11 -4 11 -10z m-562 -65 c3 -25 2
-27 -12 -16 -19 16 -22 55 -3 49 6 -3 14 -17 15 -33z m112 -1 c0 -16 -9 -17
-29 -5 -8 5 -11 16 -7 26 5 14 9 15 21 5 8 -7 15 -19 15 -26z m-60 6 c0 -11
-7 -20 -15 -20 -8 0 -15 9 -15 20 0 11 7 20 15 20 8 0 15 -9 15 -20z m-115
-11 c8 -23 1 -34 -14 -24 -13 8 -15 45 -2 45 5 0 13 -9 16 -21z m1815 6 c0 -8
-7 -15 -15 -15 -16 0 -20 12 -8 23 11 12 23 8 23 -8z m-1853 -24 c10 -15 9
-22 -2 -31 -17 -14 -35 -5 -35 19 0 34 19 40 37 12z m1755 0 c-7 -4 -10 -15
-6 -24 4 -12 1 -17 -11 -17 -11 0 -15 5 -11 15 3 8 1 15 -4 15 -20 0 -9 19 13
22 27 5 36 0 19 -11z m45 -13 c-3 -7 -5 -2 -5 12 0 14 2 19 5 13 2 -7 2 -19 0
-25z m78 13 c7 -12 -31 -24 -47 -15 -8 5 -6 10 8 15 26 10 32 10 39 0z m-1065
-53 c0 -26 -17 -22 -24 5 -11 40 -7 53 9 31 8 -10 15 -27 15 -36z m880 27
c-11 -13 -10 -14 4 -9 20 8 22 -19 2 -35 -11 -9 -15 -6 -19 16 -6 31 -1 43 15
43 6 0 6 -6 -2 -15z m-1737 -38 c-7 -11 -23 12 -23 33 1 12 4 11 15 -4 8 -10
12 -23 8 -29z m202 -12 c-22 -41 -40 -47 -23 -7 16 36 30 54 36 47 4 -3 -2
-21 -13 -40z m-25 25 c0 -5 -4 -10 -10 -10 -5 0 -10 5 -10 10 0 6 5 10 10 10
6 0 10 -4 10 -10z m1712 -35 c-2 -19 -8 -35 -13 -35 -10 0 -12 31 -3 54 11 28
20 17 16 -19z m-1804 3 c19 -19 14 -30 -8 -18 -11 6 -20 15 -20 20 0 14 14 12
28 -2z m718 -22 c8 -33 1 -242 -8 -252 -5 -4 -16 0 -25 8 -33 28 -48 32 -25 6
15 -17 20 -31 16 -44 -6 -16 -5 -17 7 -6 7 6 19 12 27 12 11 0 13 -23 7 -132
-5 -94 -4 -130 3 -123 6 6 12 41 14 79 2 48 7 71 17 74 10 3 12 -2 7 -21 -3
-14 -2 -28 3 -31 14 -9 18 14 11 54 -12 67 -7 95 18 98 12 2 22 -1 22 -7 0 -6
-7 -11 -15 -11 -8 0 -15 -4 -15 -9 0 -5 9 -7 19 -4 16 4 21 -2 26 -34 4 -21 9
-47 13 -58 3 -11 5 -24 4 -29 -2 -4 2 -14 8 -20 11 -14 4 -26 -17 -26 -7 0
-13 8 -13 17 0 9 -3 14 -6 10 -3 -3 -3 -20 1 -38 6 -27 9 -29 17 -16 13 24 38
21 38 -4 0 -12 -8 -23 -20 -26 -11 -3 -20 -9 -20 -15 0 -5 9 -4 20 2 23 13 28
5 32 -50 2 -26 -1 -35 -12 -35 -8 0 -16 10 -18 23 -4 24 -17 29 -28 11 -3 -6
-1 -15 5 -19 7 -4 13 -23 14 -43 1 -22 7 -37 15 -37 15 0 15 6 2 30 -7 14 -5
19 10 23 23 6 34 -7 26 -28 -3 -8 -2 -15 3 -15 5 0 11 -12 14 -27 3 -16 11
-46 17 -68 6 -22 11 -48 11 -57 0 -10 5 -18 10 -18 6 0 9 -8 8 -17 -1 -10 1
-26 6 -35 4 -10 5 -24 2 -32 -3 -8 1 -17 9 -20 19 -7 18 -33 -3 -46 -16 -10
-16 -11 -1 -6 9 2 22 -2 29 -11 11 -12 10 -17 -4 -28 -18 -13 -145 -50 -151
-44 -2 2 1 48 6 101 12 117 8 137 -38 188 -20 22 -33 44 -29 50 3 6 -3 10 -14
10 -23 0 -28 15 -8 23 6 3 2 6 -10 6 -20 1 -22 6 -22 74 0 97 0 97 -11 97 -6
0 -10 -30 -10 -71 0 -39 -4 -69 -9 -67 -5 2 -62 51 -127 110 -66 58 -177 153
-249 211 -127 103 -223 192 -214 201 2 2 59 20 126 40 67 20 198 61 290 90 92
30 171 55 175 55 4 1 10 -10 14 -23z m1007 -1 c23 -32 17 -32 -13 0 -13 14
-19 25 -14 25 5 0 17 -12 27 -25z m-93 4 c0 -7 9 -9 23 -6 12 4 29 2 37 -4 11
-8 9 -9 -10 -4 -19 4 -17 1 10 -14 19 -11 32 -20 28 -21 -3 0 -78 -22 -165
-50 -87 -27 -162 -50 -167 -50 -6 0 3 14 19 30 19 19 39 30 57 30 30 0 40 20
11 20 -19 1 123 79 145 80 6 0 12 -5 12 -11z m78 -101 c1 -50 28 -189 37 -188
5 1 11 -4 14 -11 2 -7 -1 -9 -8 -5 -7 5 -11 -3 -11 -23 0 -30 34 -63 42 -41 6
18 52 16 56 -2 3 -13 -1 -16 -14 -11 -12 4 -15 2 -12 -8 3 -8 11 -14 19 -14 7
0 15 -8 17 -19 3 -11 0 -16 -7 -12 -6 4 -11 2 -11 -3 0 -6 6 -11 14 -11 7 0
16 -10 19 -22 3 -13 9 -33 12 -45 4 -13 3 -23 -3 -23 -5 0 -12 15 -16 33 -5
25 -9 29 -16 17 -6 -9 -6 -18 0 -24 6 -6 10 -19 10 -29 0 -13 5 -17 15 -14 22
9 30 -14 10 -30 -18 -12 -18 -13 3 -13 26 0 29 -25 5 -39 -17 -10 -15 -12 16
-15 20 -2 26 -26 6 -26 -11 0 -15 -6 -12 -17 3 -10 11 -43 17 -73 7 -30 17
-65 23 -77 11 -24 -4 -73 -21 -73 -13 0 -32 47 -32 80 0 16 -5 32 -11 36 -9 5
-10 -3 -5 -30 17 -91 17 -105 -5 -117 -27 -14 -38 1 -40 51 -3 85 -17 91 -15
6 l1 -88 -89 -54 c-49 -30 -92 -54 -97 -54 -4 0 2 23 12 50 99 260 -18 560
-285 735 -42 27 -76 53 -76 57 0 26 196 -117 262 -191 50 -56 111 -170 133
-251 15 -54 15 -55 10 -10 -7 56 -60 168 -110 235 -46 60 -158 160 -221 196
-63 37 -78 54 -39 45 42 -9 155 -88 204 -142 61 -65 131 -178 168 -269 18 -44
33 -71 33 -59 0 32 -82 192 -134 261 -55 72 -152 164 -207 196 -21 12 -39 25
-39 30 0 32 114 -47 201 -140 68 -71 113 -141 160 -245 19 -43 35 -74 37 -69
5 15 -53 135 -101 208 -48 74 -149 183 -211 229 -46 34 -31 45 19 14 82 -51
230 -244 275 -360 20 -53 33 -61 15 -10 -48 135 -182 310 -304 396 -1 2 0 7 4
13 27 44 207 -161 286 -325 37 -79 48 -85 14 -9 -37 84 -130 221 -198 292 -33
35 -54 63 -47 63 7 0 45 -33 84 -72 50 -52 85 -100 120 -166 27 -51 51 -90 54
-88 10 11 -108 204 -160 261 -32 35 -58 67 -58 71 0 21 126 -118 162 -178 44
-74 60 -90 29 -30 -18 34 -75 114 -137 190 -15 17 -22 32 -16 32 19 0 78 -58
117 -115 21 -30 40 -53 43 -51 6 6 -52 88 -93 132 -56 59 -30 54 30 -6 67 -66
72 -60 9 11 -52 59 -51 79 2 28 26 -24 33 -28 25 -12 -6 12 -16 25 -21 28 -21
13 -9 27 31 34 4 0 7 -9 7 -21z m-928 -68 c0 -22 -16 -35 -24 -21 -4 5 -2 12
3 16 6 3 7 13 4 22 -4 11 -3 14 5 9 7 -4 12 -16 12 -26z m1006 -11 c9 -16 -12
-33 -31 -25 -14 5 -15 9 -5 21 15 18 26 19 36 4z m-996 -29 c0 -5 -13 -16 -30
-25 -25 -13 -30 -13 -30 -2 0 8 10 19 23 25 28 14 37 14 37 2z m1007 -30 c-3
-11 -1 -20 4 -20 17 0 9 -29 -11 -40 -16 -8 -20 -8 -20 3 0 8 -3 29 -6 46 -6
27 -4 31 16 31 17 0 21 -4 17 -20z m-997 -16 c0 -8 -4 -12 -10 -9 -5 3 -10 10
-10 16 0 5 5 9 10 9 6 0 10 -7 10 -16z m-50 -14 c0 -5 -4 -10 -10 -10 -5 0
-10 5 -10 10 0 6 5 10 10 10 6 0 10 -4 10 -10z m-537 -65 c29 -22 47 -43 47
-56 0 -31 -32 -149 -40 -149 -11 0 -18 44 -10 66 14 38 21 106 10 99 -5 -3
-10 -21 -10 -40 0 -19 -4 -37 -10 -40 -6 -4 -10 6 -10 22 0 16 -9 46 -20 68
-21 41 -25 65 -12 65 4 0 28 -16 55 -35z m537 0 c0 -19 -4 -35 -10 -35 -5 0
-10 16 -10 35 0 19 5 35 10 35 6 0 10 -16 10 -35z m1062 -1 c-11 -9 -20 -9
-27 -3 -7 7 -4 15 9 25 15 11 22 11 27 2 4 -7 0 -17 -9 -24z m-42 -3 c0 -6 -4
-13 -10 -16 -5 -3 -10 1 -10 9 0 9 5 16 10 16 6 0 10 -4 10 -9z m-1472 -92 c2
-19 -6 -62 -16 -97 -11 -34 -16 -60 -12 -57 9 5 33 76 44 128 4 16 12 27 19
24 21 -7 19 -64 -6 -136 -14 -39 -23 -71 -21 -71 7 0 38 67 54 120 14 44 19
51 25 36 7 -17 1 -60 -20 -136 -13 -49 15 3 31 58 9 31 21 52 30 52 22 0 17
-53 -11 -120 -14 -33 -25 -65 -25 -72 0 -23 19 13 41 82 12 36 25 68 28 73 4
4 24 -7 44 -25 32 -28 39 -41 46 -93 l9 -60 1 50 c2 47 3 49 17 30 16 -21 16
-127 1 -170 -4 -11 2 -2 13 20 14 28 19 51 15 78 -3 20 -1 37 4 37 28 0 43
-68 31 -146 -5 -30 -4 -42 3 -35 5 5 13 38 16 71 l6 62 22 -24 c12 -12 26 -45
31 -73 l10 -50 1 45 2 45 24 -30 c14 -17 25 -43 25 -61 0 -42 -45 -127 -86
-164 -38 -33 -54 -38 -54 -15 0 9 -9 15 -23 15 -25 0 -90 42 -117 75 -8 10
-55 51 -105 90 -49 40 -95 78 -102 86 -20 25 -66 198 -60 227 32 156 58 208
65 131z m2877 -69 c-3 -5 -10 -10 -16 -10 -5 0 -9 5 -9 10 0 6 7 10 16 10 8 0
12 -4 9 -10z m-43 -53 c-12 -13 -22 -27 -22 -32 0 -14 -72 -85 -86 -85 -11 0
-29 -27 -26 -41 0 -3 -18 -24 -41 -45 l-42 -39 35 41 c19 22 -46 -42 -145
-142 -111 -113 -190 -185 -205 -188 -14 -3 -67 -7 -119 -9 -52 -3 -96 -9 -100
-16 -10 -16 -297 -152 -445 -210 -97 -38 -132 -48 -137 -39 -4 7 -11 10 -14 6
-4 -3 -1 -15 6 -26 11 -18 10 -23 -12 -41 -13 -11 -41 -24 -62 -27 l-38 -7 7
-43 c8 -55 -12 -60 -51 -11 l-26 32 15 -32 c16 -32 16 -33 -6 -37 -63 -13
-171 -16 -184 -5 -11 9 -14 8 -14 -1 0 -10 -3 -10 -15 0 -8 7 -15 19 -15 27 0
13 2 13 16 2 15 -12 16 -11 10 9 -9 26 1 29 21 5 13 -16 13 -16 4 4 -14 27
-14 43 -1 43 6 0 10 -6 10 -13 0 -7 7 -22 16 -33 15 -18 15 -18 5 3 -16 32
-13 70 5 77 9 3 30 6 47 6 18 0 39 5 47 11 15 11 15 11 -126 -7 -46 -6 -53 -4
-67 16 -15 22 -14 25 14 65 67 93 365 333 415 335 14 0 28 -82 19 -109 -3 -11
1 -36 10 -57 23 -56 31 -140 14 -160 -12 -15 -11 -16 11 -9 33 10 35 12 23 27
-6 7 -14 42 -18 78 -4 36 -13 103 -21 149 l-15 85 25 25 c14 14 28 23 30 20 3
-3 19 -66 35 -140 16 -74 30 -125 30 -114 1 11 -11 74 -25 139 -26 115 -26
120 -8 133 27 20 30 17 47 -39 34 -117 67 -244 67 -260 0 -10 -17 -26 -40 -38
-22 -11 -40 -22 -40 -25 0 -10 96 38 113 56 11 11 25 18 33 15 18 -7 68 15 54
24 -9 6 232 154 497 305 102 58 194 145 258 244 l44 68 48 -4 c45 -5 51 -2 93
35 48 43 82 42 42 -1z m-32 23 c0 -16 -62 -50 -92 -50 -48 0 -39 18 19 38 69
24 73 25 73 12z m-2940 -40 c0 -5 -4 -10 -10 -10 -5 0 -10 5 -10 10 0 6 5 10
10 10 6 0 10 -4 10 -10z m10 -29 c0 -6 -4 -13 -10 -16 -5 -3 -10 1 -10 9 0 9
5 16 10 16 6 0 10 -4 10 -9z m32 -56 c3 -13 1 -22 -3 -19 -9 5 -13 44 -5 44 2
0 6 -11 8 -25z m459 -32 l34 -37 -34 25 c-19 14 -37 31 -39 37 -6 20 2 14 39
-25z m-1501 8 c-15 -30 -12 -47 13 -75 28 -30 52 -74 45 -81 -11 -12 -210 93
-206 107 4 10 124 65 146 67 9 1 10 -4 2 -18z m135 9 c4 -6 -5 -10 -20 -10
-15 0 -24 4 -20 10 3 6 12 10 20 10 8 0 17 -4 20 -10z m2635 -51 c0 -5 -4 -9
-10 -9 -5 0 -10 7 -10 16 0 8 5 12 10 9 6 -3 10 -10 10 -16z m-2925 -37 c-3
-3 -11 0 -18 7 -9 10 -8 11 6 5 10 -3 15 -9 12 -12z m2935 -8 c0 -8 -4 -14
-10 -14 -5 0 -10 9 -10 21 0 11 5 17 10 14 6 -3 10 -13 10 -21z m1080 -49 c0
-16 -9 -44 -19 -62 -23 -37 -123 -122 -189 -159 -26 -15 -55 -34 -64 -42 -9
-7 -25 -12 -35 -9 -14 4 -14 5 5 6 12 0 22 6 22 12 0 15 23 44 152 187 114
126 128 133 128 67z m-3390 20 c-13 -14 -26 -22 -29 -19 -3 3 5 14 19 24 34
27 38 25 10 -5z m84 -1 c23 -22 8 -39 -15 -18 -10 9 -19 21 -19 26 0 13 17 9
34 -8z m3332 -32 c-12 -11 -18 7 -10 30 l8 23 4 -23 c2 -13 1 -26 -2 -30z
m-3484 11 c-24 -35 -22 -62 6 -98 30 -38 28 -54 -3 -25 -14 13 -25 29 -25 36
0 25 -37 24 -95 -1 -32 -14 -65 -24 -74 -23 -9 2 17 16 57 32 40 15 71 30 69
32 -2 2 -34 -5 -70 -16 -69 -21 -126 -18 -135 8 -4 14 24 16 33 2 15 -25 115
-1 144 34 13 15 15 15 27 -1 12 -17 15 -16 46 15 40 39 45 41 20 5z m-237 7
c3 -5 1 -10 -4 -10 -6 0 -11 5 -11 10 0 6 2 10 4 10 3 0 8 -4 11 -10z m2633
-22 c8 -21 8 -36 2 -42 -7 -7 -10 -2 -10 13 0 12 -5 31 -10 42 -6 10 -7 19 -3
19 5 0 14 -14 21 -32z m896 -45 c-102 -117 -192 -208 -199 -202 -6 7 246 277
254 272 2 -1 -23 -33 -55 -70z m-3160 41 c9 -3 16 -11 16 -17 0 -17 -32 -47
-49 -46 -11 0 -9 4 7 11 12 6 22 20 22 31 0 20 -1 20 -25 -3 -25 -23 -25 -23
-25 -3 0 27 23 39 54 27z m541 -44 c-3 -5 -13 -10 -21 -10 -8 0 -14 5 -14 10
0 6 9 10 21 10 11 0 17 -4 14 -10z m584 -58 c-5 -26 -14 -48 -19 -50 -5 -2 -7
-16 -3 -32 5 -26 1 -30 -32 -44 -47 -20 -45 -20 -45 4 0 11 9 25 20 32 11 7
20 20 20 28 0 9 7 25 15 36 8 10 15 29 15 41 0 37 11 55 25 43 9 -8 10 -23 4
-58z m-1095 13 c-4 -8 -13 -15 -21 -15 -13 0 -13 3 -3 15 7 8 16 15 21 15 5 0
6 -7 3 -15z m-459 -14 c-13 -12 -115 -52 -115 -45 0 6 101 54 115 54 5 0 5 -3
0 -9z m225 -6 c-11 -13 -10 -15 6 -10 10 3 -3 -6 -31 -19 -53 -26 -94 -36 -65
-15 10 7 11 9 2 7 -8 -2 -12 -7 -10 -12 2 -4 -8 -14 -22 -23 -27 -15 -26 -15
80 23 57 20 66 21 73 8 5 -9 6 -18 3 -21 -3 -4 -6 -1 -6 5 0 20 -23 14 -133
-33 -58 -25 -108 -45 -110 -45 -2 0 -4 6 -4 13 0 6 -2 19 -4 26 -3 11 29 29
106 63 119 52 134 56 115 33z m1347 -17 c-3 -8 -6 -5 -6 6 -1 11 2 17 5 13 3
-3 4 -12 1 -19z m1168 -35 c3 -18 3 -33 -2 -33 -10 0 -33 77 -25 85 8 8 18
-13 27 -52z m-2695 42 c0 -2 -22 -14 -50 -26 -53 -23 -56 -28 -39 -61 14 -25
3 -68 -17 -68 -12 0 -14 7 -9 34 4 20 2 36 -4 40 -24 15 -8 38 42 61 50 23 77
30 77 20z m3170 -10 c0 -7 -142 -96 -146 -92 -7 6 23 29 85 64 60 35 61 35 61
28z m-3397 -61 c-15 -23 -19 -25 -21 -10 -4 19 30 64 36 47 2 -5 -5 -22 -15
-37z m484 40 c-3 -3 -12 -4 -19 -1 -8 3 -5 6 6 6 11 1 17 -2 13 -5z m2497
-101 c25 -90 34 -140 16 -96 -18 44 -59 206 -51 197 5 -5 21 -50 35 -101z
m-2934 72 c0 -8 -7 -15 -16 -15 -14 0 -14 3 -4 15 7 8 14 15 16 15 2 0 4 -7 4
-15z m529 -37 c1 -10 -6 -18 -14 -18 -16 0 -20 26 -8 56 6 16 7 16 14 -2 4
-10 8 -27 8 -36z m1167 4 c-12 -11 -18 7 -10 30 l8 23 4 -23 c2 -13 1 -26 -2
-30z m-1672 4 c-6 -16 -24 -23 -24 -8 0 10 22 33 27 28 2 -2 1 -11 -3 -20z
m436 14 c0 -5 -4 -10 -10 -10 -5 0 -10 5 -10 10 0 6 5 10 10 10 6 0 10 -4 10
-10z m189 -60 c0 -8 -7 -1 -14 15 -8 17 -14 37 -14 45 0 8 7 2 14 -15 8 -16
14 -37 14 -45z m-96 40 c3 -11 1 -18 -4 -14 -5 3 -9 12 -9 20 0 20 7 17 13 -6z
m-256 4 c-3 -3 -12 -4 -19 -1 -8 3 -5 6 6 6 11 1 17 -2 13 -5z m123 -6 c0 -7
3 -23 6 -35 5 -17 2 -23 -9 -23 -17 0 -52 48 -42 58 3 4 10 0 15 -8 8 -13 10
-12 10 3 0 19 20 24 20 5z m345 -19 c9 -17 14 -33 11 -36 -3 -3 -10 7 -16 22
-6 15 -13 32 -16 36 -3 5 -3 9 0 9 3 0 13 -14 21 -31z m490 7 c193 -12 205
-15 218 -44 6 -15 26 -48 44 -74 19 -25 29 -49 24 -52 -20 -13 -60 19 -87 68
-46 86 -75 106 -104 71 -19 -23 8 -87 40 -96 16 -5 19 -7 8 -8 -10 -1 -18 -8
-18 -16 0 -19 -14 -19 -30 0 -6 8 -16 13 -21 12 -5 -1 -23 23 -40 53 -27 49
-17 45 19 -6 7 -11 3 0 -10 24 -13 25 -31 45 -44 48 -50 13 -58 -25 -18 -87
31 -49 22 -66 -13 -24 -14 17 -23 22 -19 13 9 -28 1 -21 -28 22 -30 46 -33 58
-8 39 13 -11 13 -8 -3 11 -11 14 -29 33 -40 43 -20 18 -20 19 5 14 14 -3 70
-8 125 -11z m1635 -2 c0 -8 -4 -12 -10 -9 -5 3 -10 10 -10 16 0 5 5 9 10 9 6
0 10 -7 10 -16z m-2535 -4 c3 -5 1 -10 -4 -10 -6 0 -11 5 -11 10 0 6 2 10 4
10 3 0 8 -4 11 -10z m105 -34 c0 -6 -7 -2 -15 8 -8 11 -15 25 -15 30 0 6 7 2
15 -8 8 -11 15 -25 15 -30z m157 28 c-3 -3 -12 -4 -19 -1 -8 3 -5 6 6 6 11 1
17 -2 13 -5z m1037 -16 c-8 -26 -22 -38 -46 -38 -25 0 -22 26 4 44 33 24 51
21 42 -6z m2001 -3 c-43 -36 -262 -146 -388 -195 l-107 -43 6 -35 c5 -28 4
-34 -7 -30 -8 3 -23 -4 -34 -15 -20 -19 -20 -19 25 -12 53 8 175 50 279 94 41
17 76 29 78 27 8 -8 -138 -74 -232 -105 -49 -16 -120 -35 -157 -42 -62 -11
-69 -11 -88 6 l-21 19 36 33 c20 18 41 31 46 28 5 -4 9 -1 9 4 0 6 -7 11 -16
11 -29 0 -4 19 34 26 20 3 42 12 47 19 16 19 83 45 87 34 2 -6 29 0 63 13 53
20 57 23 35 30 -21 6 -20 7 6 3 18 -2 40 2 50 10 17 13 13 14 -40 15 -84 0
-66 8 32 13 120 7 113 17 -14 19 -104 1 -106 2 -39 8 l70 6 -70 4 -70 3 55 8
c169 26 307 26 178 0 l-53 -10 48 3 c34 3 65 14 105 39 66 42 91 48 47 12z
m-3699 -12 c-10 -10 -19 5 -10 18 6 11 8 11 12 0 2 -7 1 -15 -2 -18z m74 -2
c-6 -12 -15 -21 -21 -21 -5 0 -2 11 7 25 20 30 31 26 14 -4z m160 19 c0 -5 -2
-10 -4 -10 -3 0 -8 5 -11 10 -3 6 -1 10 4 10 6 0 11 -4 11 -10z m375 -36 c9
-19 15 -47 13 -62 -3 -24 -6 -20 -31 32 -15 32 -27 62 -27 67 0 19 30 -5 45
-37z m471 -5 c14 -28 24 -53 22 -55 -2 -2 -16 21 -31 51 -15 30 -25 55 -22 55
3 0 16 -23 31 -51z m2704 41 c0 -5 -5 -10 -11 -10 -5 0 -7 5 -4 10 3 6 8 10
11 10 2 0 4 -4 4 -10z m-3430 -56 c0 -8 -4 -14 -10 -14 -12 0 -30 34 -30 57 1
16 3 15 20 -6 11 -13 20 -29 20 -37z m310 46 c0 -5 -5 -10 -11 -10 -5 0 -7 5
-4 10 3 6 8 10 11 10 2 0 4 -4 4 -10z m2277 -12 c-3 -8 -6 -5 -6 6 -1 11 2 17
5 13 3 -3 4 -12 1 -19z m610 16 c-3 -3 -12 -4 -19 -1 -8 3 -5 6 6 6 11 1 17
-2 13 -5z m-2057 -86 c12 -21 19 -38 17 -38 -6 0 -77 108 -77 117 1 11 35 -35
60 -79z m1923 75 c-7 -2 -21 -2 -30 0 -10 3 -4 5 12 5 17 0 24 -2 18 -5z
m-3029 -43 c7 -24 6 -24 -8 -6 -9 11 -16 27 -16 35 0 21 16 2 24 -29z m393 34
c-3 -3 -12 -4 -19 -1 -8 3 -5 6 6 6 11 1 17 -2 13 -5z m-486 -139 c33 -90 14
-102 -32 -19 -34 60 -35 67 -9 59 19 -6 19 -5 5 29 -8 19 -15 43 -14 53 0 10
9 -7 20 -37 11 -30 24 -68 30 -85z m194 127 c24 -17 55 -66 55 -88 0 -53 -33
-15 -78 88 -5 10 10 10 23 0z m-520 -12 c3 -5 2 -10 -4 -10 -5 0 -13 5 -16 10
-3 6 -2 10 4 10 5 0 13 -4 16 -10z m1741 -27 c-11 -11 -17 4 -9 23 7 18 8 18
11 1 2 -10 1 -21 -2 -24z m1241 5 c-3 -7 -5 -2 -5 12 0 14 2 19 5 13 2 -7 2
-19 0 -25z m-2721 -3 c9 -37 -4 -44 -26 -15 -14 18 -15 27 -7 32 20 13 26 9
33 -17z m1454 19 c0 -16 -23 -44 -35 -44 -18 0 -20 21 -3 38 12 12 38 17 38 6z
m-1525 -14 c3 -5 1 -10 -4 -10 -6 0 -11 5 -11 10 0 6 2 10 4 10 3 0 8 -4 11
-10z m775 0 c0 -5 -2 -10 -4 -10 -3 0 -8 5 -11 10 -3 6 -1 10 4 10 6 0 11 -4
11 -10z m250 6 c0 -11 -19 -15 -25 -6 -3 5 1 10 9 10 9 0 16 -2 16 -4z m2460
-47 c-51 -47 -114 -85 -132 -81 -5 1 -8 -3 -8 -9 0 -5 -4 -7 -10 -4 -5 3 -10
2 -10 -3 0 -10 -94 -54 -120 -57 -8 -1 -26 -7 -38 -14 -13 -7 -26 -10 -29 -7
-4 3 -12 1 -19 -5 -9 -8 -17 -3 -28 18 l-15 28 6 -35 c4 -25 3 -32 -5 -25 -20
19 -19 59 2 63 10 2 22 -2 26 -8 6 -9 10 -6 15 9 4 14 15 21 31 21 13 0 24 4
24 9 0 8 59 24 70 18 3 -1 16 8 30 21 13 12 32 22 41 22 10 0 20 4 24 9 3 6
14 8 24 6 11 -2 22 3 25 11 3 9 10 13 15 10 5 -3 11 3 14 14 5 18 32 26 74 21
6 -1 14 3 18 9 3 5 12 10 18 10 7 -1 -13 -24 -43 -51z m-3600 37 c0 -3 -4 -8
-10 -11 -5 -3 -10 -1 -10 4 0 6 5 11 10 11 6 0 10 -2 10 -4z m90 -47 c0 -31
-26 -41 -36 -14 -7 18 -40 20 -47 3 -4 -8 -6 -7 -6 3 -1 22 25 43 44 36 8 -4
17 -2 20 4 11 17 25 -1 25 -32z m263 11 c31 -37 42 -69 29 -82 -9 -9 -40 38
-70 105 -9 19 19 4 41 -23z m312 20 c-3 -5 -10 -10 -16 -10 -5 0 -9 5 -9 10 0
6 7 10 16 10 8 0 12 -4 9 -10z m65 -19 c0 -11 -9 -21 -22 -24 -30 -8 -33 -2
-11 21 23 26 33 27 33 3z m940 -6 c0 -19 -5 -25 -21 -25 -11 0 -18 3 -16 8 2
4 7 15 10 25 9 26 27 21 27 -8z m1247 -7 c-3 -7 -5 -2 -5 12 0 14 2 19 5 13 2
-7 2 -19 0 -25z m-2777 -37 c-1 -12 -5 -11 -20 8 -11 13 -20 31 -20 40 1 12 5
11 20 -8 11 -13 20 -31 20 -40z m1830 11 c0 -7 -4 -10 -10 -7 -5 3 -10 16 -10
28 0 18 2 19 10 7 5 -8 10 -21 10 -28z m1125 11 c-75 -39 -247 -114 -251 -110
-2 2 60 33 138 70 144 66 205 88 113 40z m-1670 7 c3 -5 -1 -10 -9 -10 -9 0
-16 5 -16 10 0 6 4 10 9 10 6 0 13 -4 16 -10z m1616 -61 c-79 -38 -142 -72
-139 -75 3 -3 38 11 77 30 39 20 74 36 78 36 5 -1 -13 -12 -39 -26 -49 -25
-64 -40 -28 -29 33 10 23 -15 -10 -26 -16 -6 -28 -15 -25 -19 3 -5 -10 -14
-30 -21 -31 -12 -34 -16 -31 -45 4 -32 3 -33 -42 -43 -88 -19 -221 -35 -229
-28 -15 15 14 29 36 18 19 -11 21 -9 21 16 0 33 36 73 67 73 13 0 23 -4 23
-10 0 -19 16 -10 17 11 1 15 -3 19 -20 17 -13 -2 -23 3 -24 12 -3 11 7 15 39
15 31 0 73 15 148 51 191 92 235 112 245 112 6 0 -55 -31 -134 -69z m124 31
c-33 -16 -64 -29 -70 -29 -5 1 17 14 50 29 33 16 65 29 70 29 6 -1 -17 -14
-50 -29z m70 1 c-12 -10 -111 -44 -101 -33 4 4 28 15 54 24 57 20 59 20 47 9z
m-3101 -20 c11 -12 14 -21 7 -26 -13 -8 -72 25 -65 37 9 14 40 9 58 -11z m196
-25 c0 -3 -4 -8 -10 -11 -5 -3 -10 -1 -10 4 0 6 5 11 10 11 6 0 10 -2 10 -4z
m246 -123 c19 -50 21 -63 10 -63 -18 0 -79 158 -70 179 7 17 16 0 60 -116z
m84 117 c0 -5 -5 -10 -11 -10 -5 0 -7 5 -4 10 3 6 8 10 11 10 2 0 4 -4 4 -10z
m2879 -49 c-10 -28 -28 -121 -39 -208 -24 -185 -51 -303 -81 -347 -19 -29 -20
-29 -15 -6 3 14 17 58 31 98 14 40 32 121 40 180 29 211 36 247 55 289 26 59
32 54 9 -6z m-3361 4 c4 -30 4 -30 -17 -11 -26 23 -28 49 -3 44 10 -2 18 -14
20 -33z m266 11 c-3 -14 5 -54 22 -100 20 -56 24 -80 16 -88 -12 -12 -12 -11
-57 103 -29 75 -33 108 -11 90 10 -9 15 -8 20 4 9 24 17 17 10 -9z m204 -36
c26 -75 11 -79 -17 -5 -24 64 -24 65 -12 65 5 0 18 -27 29 -60z m-413 -8 c-8
-8 -25 10 -19 20 4 6 9 5 15 -3 4 -7 6 -15 4 -17z m35 18 c0 -5 -4 -10 -10
-10 -5 0 -10 5 -10 10 0 6 5 10 10 10 6 0 10 -4 10 -10z m64 -20 c-4 -20 -2
-30 5 -30 7 0 10 -4 7 -9 -3 -5 3 -35 14 -66 24 -69 26 -92 7 -77 -7 6 -21 36
-32 67 -10 31 -29 66 -42 78 -23 22 -30 38 -15 36 15 -2 52 14 52 22 0 5 2 9
5 9 2 0 2 -13 -1 -30z m366 15 c-7 -8 -18 -15 -24 -15 -6 0 -2 7 8 15 25 19
32 19 16 0z m610 -9 c0 -21 -17 -29 -46 -22 -38 10 -30 36 11 36 24 0 35 -5
35 -14z m-1115 -23 c-22 -15 -41 -17 -49 -4 -7 11 44 31 58 23 5 -3 1 -11 -9
-19z m713 7 c46 -10 55 -17 69 -46 11 -23 19 -30 24 -22 6 9 13 1 23 -22 20
-49 23 -82 9 -87 -7 -3 -13 2 -13 10 0 11 -15 14 -60 15 -64 1 -180 29 -180
43 0 5 4 9 8 9 10 0 9 53 -1 61 -5 3 -22 -7 -38 -24 -17 -16 -33 -26 -37 -22
-4 4 -2 10 4 12 6 2 20 10 30 18 29 21 10 29 -26 10 -19 -10 -29 -12 -25 -5 4
7 23 18 41 26 19 8 34 22 34 30 0 18 31 17 138 -6z m-818 -28 c0 -21 -2 -24
-10 -12 -13 20 -13 53 0 45 6 -3 10 -18 10 -33z m146 13 c-3 -8 8 -50 24 -92
17 -43 30 -84 30 -91 0 -27 -18 0 -40 60 -12 35 -31 72 -41 84 -24 26 -24 33
4 44 30 12 30 12 23 -5z m-37 -66 c-16 -10 -23 -4 -14 10 3 6 11 8 17 5 6 -4
5 -9 -3 -15z m328 -9 c1 -11 -2 -20 -5 -20 -4 0 -8 9 -9 20 -1 11 2 20 5 20 4
0 8 -9 9 -20z m639 -10 l14 -25 -6 30 c-6 29 -6 29 9 10 l16 -20 1 20 c1 20 1
20 15 1 8 -11 15 -14 15 -8 0 25 18 11 35 -28 10 -23 23 -43 27 -47 5 -3 0 13
-11 36 -26 51 -26 51 4 51 15 0 28 -7 32 -17 6 -15 7 -15 13 3 6 17 9 16 23
-11 l17 -30 -6 28 c-6 25 -4 27 25 27 22 0 31 -5 32 -17 1 -17 2 -17 6 0 5 19
23 24 23 6 0 -6 6 -9 14 -6 8 3 18 -5 25 -19 14 -31 14 -37 1 -29 -13 8 -13
-5 0 -25 8 -12 10 -12 10 5 1 20 1 20 15 1 21 -28 19 -12 -5 34 -11 21 -16 41
-11 44 5 3 18 -16 30 -42 19 -41 23 -24 5 23 -5 13 -2 16 17 13 21 -3 68 -65
69 -90 0 -5 -32 -8 -71 -8 -57 0 -75 4 -85 18 -13 16 -13 16 -14 -3 -1 -20 -1
-20 -15 -1 -14 18 -15 18 -15 2 0 -23 -38 -13 -64 17 l-19 22 7 -22 c5 -14 3
-23 -3 -23 -6 0 -11 6 -11 13 0 6 -5 4 -11 -5 -8 -14 -23 -18 -69 -18 -69 0
-90 6 -90 29 0 9 -5 23 -10 31 -7 11 -8 6 -4 -17 6 -33 6 -33 -35 -33 -44 0
-54 12 -68 82 -5 26 -5 26 52 25 49 -2 59 -5 71 -27z m921 -16 c31 -53 29 -77
-2 -41 -14 15 -25 24 -25 18 0 -5 5 -13 10 -16 13 -8 13 -25 1 -25 -13 0 -46
49 -56 80 l-7 25 28 -25 c16 -14 23 -18 17 -10 -7 8 -13 20 -13 28 0 24 24 7
47 -34z m53 -38 c9 -25 8 -27 -6 -15 -16 13 -54 82 -54 96 1 15 50 -52 60 -81z
m850 74 c0 -5 -7 -10 -16 -10 -8 0 -12 5 -9 10 3 6 10 10 16 10 5 0 9 -4 9
-10z m-2295 -10 c3 -5 2 -10 -4 -10 -5 0 -13 5 -16 10 -3 6 -2 10 4 10 5 0 13
-4 16 -10z m921 -5 c6 -14 8 -14 18 1 11 14 15 10 29 -28 23 -58 22 -70 -5
-66 -22 3 -49 41 -63 86 -7 25 12 31 21 7z m87 -36 c28 -48 30 -68 8 -54 -12
7 -35 48 -45 83 -13 39 8 24 37 -29z m17 41 c0 -5 -4 -10 -10 -10 -5 0 -10 5
-10 10 0 6 5 10 10 10 6 0 10 -4 10 -10z m40 0 c0 -5 -4 -10 -9 -10 -6 0 -13
5 -16 10 -3 6 1 10 9 10 9 0 16 -4 16 -10z m40 0 c0 -5 -4 -10 -10 -10 -5 0
-10 5 -10 10 0 6 5 10 10 10 6 0 10 -4 10 -10z m154 -36 c10 -25 20 -43 22
-41 2 2 -3 20 -11 40 -18 43 -19 50 -5 42 16 -10 51 -85 45 -95 -3 -6 -23 -10
-44 -10 -33 0 -39 4 -55 36 -11 24 -14 40 -7 47 6 6 15 -3 25 -28 9 -21 19
-36 21 -33 3 3 -2 21 -10 41 -17 41 -18 47 -7 47 4 0 15 -21 26 -46z m61 3
c28 -59 29 -61 16 -53 -10 7 -51 78 -51 91 0 17 18 -1 35 -38z m-1810 6 c-11
-7 -26 -13 -34 -13 -12 1 -10 6 8 20 12 11 28 17 34 13 6 -4 3 -11 -8 -20z
m392 -5 c-3 -8 -6 -5 -6 6 -1 11 2 17 5 13 3 -3 4 -12 1 -19z m-367 -16 c0 -9
-44 -32 -60 -32 -21 0 -9 19 18 28 35 13 42 14 42 4z m340 -2 c0 -5 -5 -10
-11 -10 -5 0 -7 5 -4 10 3 6 8 10 11 10 2 0 4 -4 4 -10z m108 0 c-18 -11 -374
-140 -385 -140 -25 0 31 25 152 69 77 27 156 57 175 65 41 18 87 22 58 6z
m1212 -9 c17 -33 13 -43 -12 -30 -13 7 -25 12 -28 11 -5 -2 -5 4 -1 28 2 17
30 11 41 -9z m710 9 c0 -5 -4 -10 -10 -10 -5 0 -10 5 -10 10 0 6 5 10 10 10 6
0 10 -4 10 -10z m437 4 c-3 -3 -12 -4 -19 -1 -8 3 -5 6 6 6 11 1 17 -2 13 -5z
m-2633 -20 c3 -8 2 -12 -4 -9 -6 3 -10 10 -10 16 0 14 7 11 14 -7z m1846 -4
c0 -5 -4 -10 -10 -10 -5 0 -10 5 -10 10 0 6 5 10 10 10 6 0 10 -4 10 -10z
m478 3 c-10 -2 -28 -2 -40 0 -13 2 -5 4 17 4 22 1 32 -1 23 -4z m-1798 -10 c0
-17 -19 -35 -29 -29 -18 12 -12 36 9 36 11 0 20 -3 20 -7z m1703 0 c-13 -2
-33 -2 -45 0 -13 2 -3 4 22 4 25 0 35 -2 23 -4z m247 -4 c-14 -6 -56 -12 -95
-14 l-70 -4 75 13 c97 17 124 18 90 5z m175 2 c-11 -5 -36 -11 -55 -14 -35 -6
-34 -6 5 8 43 14 84 19 50 6z m-2844 -17 c-18 -8 -36 -12 -39 -9 -10 10 21 25
48 24 23 -1 22 -2 -9 -15z m2322 9 c-7 -2 -19 -2 -25 0 -7 3 -2 5 12 5 14 0
19 -2 13 -5z m-726 -9 c-3 -3 -12 -4 -19 -1 -8 3 -5 6 6 6 11 1 17 -2 13 -5z
m-182 -19 c226 0 462 3 525 7 75 4 96 3 60 -2 -77 -12 -481 -30 -670 -30 -186
0 -502 17 -545 30 -18 6 18 6 95 2 69 -3 310 -6 535 -7z m1064 11 c-6 -6 -177
-22 -484 -46 -355 -28 -702 -36 -960 -21 -287 17 -341 32 -85 23 113 -4 354
-7 535 -7 307 1 401 6 785 40 163 14 215 17 209 11z m254 -3 c-7 -2 -19 -2
-25 0 -7 3 -2 5 12 5 14 0 19 -2 13 -5z m-2140 -73 c73 -33 149 -96 174 -144
23 -44 20 -133 -6 -183 -29 -58 -35 -54 -11 7 51 129 19 190 -156 297 -50 30
-96 65 -104 77 -13 21 -12 21 11 -1 14 -12 55 -36 92 -53z m2090 63 c-7 -2
-21 -2 -30 0 -10 3 -4 5 12 5 17 0 24 -2 18 -5z m177 -2 c-8 -5 -37 -12 -65
-15 -58 -7 -49 0 16 13 59 12 67 12 49 2z m120 -1 c-8 -5 -19 -10 -25 -10 -5
0 -3 5 5 10 8 5 20 10 25 10 6 0 3 -5 -5 -10z m-2980 -10 c0 -5 -7 -10 -15
-10 -8 0 -15 5 -15 10 0 6 7 10 15 10 8 0 15 -4 15 -10z m365 -12 c-51 -27
-203 -83 -190 -70 11 11 204 90 220 91 6 0 -8 -9 -30 -21z m2175 7 c-211 -29
-489 -53 -818 -71 -67 -4 -125 -11 -128 -16 -7 -10 -22 -11 301 8 152 8 284
14 293 12 9 -2 -64 -10 -163 -16 -99 -7 -218 -16 -265 -21 l-85 -8 75 -3 75
-3 -70 -7 c-38 -4 -101 -8 -139 -9 -38 0 -66 -4 -62 -8 3 -4 65 -6 137 -4 95
2 129 -1 124 -9 -5 -8 7 -9 42 -5 147 16 247 25 285 24 39 -2 38 -2 -17 -10
-33 -4 -116 -13 -185 -19 -158 -14 -190 -19 -190 -30 0 -4 17 -6 38 -4 20 2
123 11 227 19 105 9 257 23 339 31 160 15 182 16 175 10 -2 -2 -78 -12 -169
-21 -317 -31 -714 -76 -719 -80 -9 -10 202 6 553 40 88 8 178 14 200 14 57 -2
-498 -61 -743 -79 -68 -5 -127 -12 -130 -16 -13 -13 398 10 544 31 31 5 37 3
28 -6 -7 -7 -63 -16 -134 -21 -167 -12 -188 -28 -29 -22 91 3 117 1 95 -6 -16
-5 -162 -13 -322 -17 -180 -4 -293 -10 -293 -16 0 -6 100 -7 283 -3 155 5 279
5 276 2 -16 -17 -669 -38 -789 -26 -20 2 -43 1 -51 -2 -20 -8 -245 10 -279 22
-15 5 49 7 165 5 184 -4 186 -3 70 6 -66 5 -149 13 -185 19 -57 8 -50 8 55 5
l120 -3 -105 14 c-133 17 -157 25 -60 19 185 -12 305 -14 265 -5 -22 5 -64 9
-93 9 -29 1 -96 6 -148 13 -141 17 -92 30 68 18 176 -13 495 -13 503 0 4 7
-36 9 -127 4 -146 -6 -495 16 -538 35 -20 9 -12 10 45 6 39 -3 171 -7 295 -9
217 -5 219 -4 70 4 -244 14 -434 31 -442 39 -5 4 63 6 150 5 l157 -3 -132 12
c-72 7 -135 16 -140 20 -4 5 114 5 262 1 149 -3 268 -4 265 -1 -3 3 -120 10
-260 17 -343 16 -395 31 -85 25 132 -3 303 -7 380 -10 103 -3 125 -2 85 5 -30
5 -172 13 -315 19 -290 12 -482 28 -505 43 -10 6 -2 8 25 4 22 -3 173 -13 335
-22 334 -18 680 -15 955 10 94 8 258 22 365 31 107 9 200 18 205 20 6 2 26 3
45 3 19 0 -8 -6 -60 -13z m-2490 -5 c0 -10 -41 -30 -61 -30 -20 0 -8 19 19 28
36 14 42 14 42 2z m2603 -17 c-7 -2 -21 -2 -30 0 -10 3 -4 5 12 5 17 0 24 -2
18 -5z m337 3 c0 -2 -7 -7 -16 -10 -8 -3 -12 -2 -9 4 6 10 25 14 25 6z m-407
-13 c-7 -2 -21 -2 -30 0 -10 3 -4 5 12 5 17 0 24 -2 18 -5z m237 3 c0 -2 -13
-6 -29 -8 -17 -2 -28 -1 -25 4 5 8 54 12 54 4z m-2796 -21 c-10 -8 -23 -14
-29 -14 -5 0 -1 6 9 14 11 8 24 15 30 15 5 0 1 -7 -10 -15z m2466 5 c-49 -8
-294 -21 -270 -14 20 6 214 21 270 21 l45 1 -45 -8z m180 -11 c-32 -7 -223
-28 -585 -63 -77 -7 -146 -10 -153 -6 -8 4 51 12 130 18 273 22 485 42 529 51
24 5 60 9 79 9 l35 0 -35 -9z m325 1 c-3 -5 -12 -10 -18 -10 -7 0 -6 4 3 10
19 12 23 12 15 0z m-2635 -20 c-8 -6 -22 -10 -30 -9 -9 0 -5 6 10 14 27 14 44
10 20 -5z m2565 1 c-12 -11 -83 -26 -73 -16 6 6 26 12 78 24 2 1 0 -3 -5 -8z
m-2475 -6 c0 -6 -56 -35 -67 -35 -4 1 8 9 27 20 39 22 40 22 40 15z m2263 -2
c-7 -2 -21 -2 -30 0 -10 3 -4 5 12 5 17 0 24 -2 18 -5z m-2593 -27 c0 -16 -18
-31 -27 -22 -8 8 5 36 17 36 5 0 10 -6 10 -14z m112 -80 c-13 -29 -31 -50 -52
-61 -24 -13 -31 -13 -28 -3 3 7 15 18 27 24 24 13 49 34 39 34 -4 0 -18 -4
-32 -10 -36 -13 -32 -6 9 19 19 11 35 25 35 32 0 7 -10 5 -26 -6 -14 -9 -28
-15 -30 -12 -3 3 11 15 30 27 20 12 37 27 37 33 1 7 4 2 6 -10 2 -12 -5 -42
-15 -67z m2221 77 c-7 -2 -19 -2 -25 0 -7 3 -2 5 12 5 14 0 19 -2 13 -5z m284
1 c-3 -3 -12 -4 -19 -1 -8 3 -5 6 6 6 11 1 17 -2 13 -5z m-2302 -29 c-27 -13
-59 -24 -70 -24 -11 0 7 11 40 24 77 30 95 30 30 0z m2472 19 c-3 -3 -12 -4
-19 -1 -8 3 -5 6 6 6 11 1 17 -2 13 -5z m-659 -11 c-10 -2 -28 -2 -40 0 -13 2
-5 4 17 4 22 1 32 -1 23 -4z m-2121 -23 c1 -11 -3 -20 -8 -20 -6 0 -7 -5 -4
-11 4 -5 -1 -19 -12 -31 -10 -11 -18 -23 -17 -27 2 -14 -9 -41 -16 -41 -12 0
-5 33 7 37 6 2 9 13 6 23 -3 12 1 22 9 25 8 3 14 16 13 28 -2 17 6 31 20 37 1
0 1 -9 2 -20z m1746 13 c-7 -2 -21 -2 -30 0 -10 3 -4 5 12 5 17 0 24 -2 18 -5z
m-1393 -18 c0 -8 -102 -57 -107 -51 -3 3 18 17 48 31 59 27 59 27 59 20z m120
-1 c0 -5 -145 -75 -197 -95 -33 -12 -28 5 5 21 24 12 183 79 190 80 1 0 2 -3
2 -6z m1935 -15 c-22 -4 -53 -7 -70 -7 -26 1 -24 2 10 8 22 4 54 7 70 7 25 1
23 -1 -10 -8z m-2215 -9 c-8 -5 -22 -9 -30 -9 -10 0 -8 3 5 9 27 12 43 12 25
0z m2403 3 c-7 -2 -21 -2 -30 0 -10 3 -4 5 12 5 17 0 24 -2 18 -5z m-128 -13
c-11 -5 -33 -8 -50 -8 -29 0 -29 0 -5 8 14 4 36 8 50 8 23 1 23 0 5 -8z
m-2261 -31 c-6 -10 -65 -39 -79 -39 -15 0 10 23 39 36 38 16 49 17 40 3z
m2446 3 c0 -4 -13 -23 -30 -42 -30 -35 -32 -19 -2 28 14 22 32 30 32 14z m60
4 c0 -2 -7 -7 -16 -10 -8 -3 -12 -2 -9 4 6 10 25 14 25 6z m162 -18 c22 -11
34 -56 19 -71 -8 -8 -15 -6 -27 11 -8 12 -25 27 -37 33 l-22 12 23 -25 c28
-31 28 -39 -3 -68 -24 -23 -25 -23 -25 -3 0 24 -65 49 -105 39 -26 -7 -26 -6
-10 18 9 14 14 29 11 34 -6 9 28 26 69 35 25 6 84 -3 107 -15z m55 8 c12 -1
25 -5 30 -10 5 -5 1 -7 -9 -3 -14 5 -14 1 4 -29 19 -32 19 -37 6 -50 -14 -14
-16 -11 -22 25 -5 32 -14 46 -39 62 -17 12 -23 18 -12 14 11 -4 30 -8 42 -9z
m-2502 -8 c-41 -24 -281 -118 -300 -118 -29 1 -6 13 90 45 44 15 109 40 145
56 66 29 101 38 65 17z m2020 2 c-11 -5 -29 -8 -40 -8 -16 0 -15 2 5 8 34 11
60 11 35 0z m128 -30 c5 -22 4 -47 -2 -63 -13 -33 -37 -37 -26 -4 14 44 17 87
6 87 -6 0 -11 -6 -11 -13 0 -16 -27 -54 -33 -47 -15 17 -16 50 -1 64 27 27 57
16 67 -24z m-402 4 c25 -23 24 -34 -3 -34 -13 0 -36 -7 -52 -15 -35 -19 -33
-19 -39 5 -3 12 1 24 11 29 14 8 14 11 2 27 -14 16 -12 17 24 11 21 -3 47 -14
57 -23z m109 11 c17 -20 -4 -45 -37 -45 -19 0 -24 4 -19 15 3 9 -1 18 -9 21
-8 4 -12 10 -9 15 9 15 60 10 74 -6z m-249 -9 c-9 -11 -8 -15 4 -20 9 -3 14
-10 10 -16 -5 -8 8 -43 21 -59 2 -2 15 6 30 18 24 19 54 28 54 17 0 -3 -4 -16
-9 -29 -8 -19 -15 -23 -38 -20 -18 3 -34 -1 -42 -11 -10 -11 -24 -14 -55 -10
-38 6 -45 3 -63 -20 -11 -14 -23 -22 -27 -19 -11 12 -6 50 9 63 8 7 15 23 15
35 0 25 61 85 87 85 12 0 13 -3 4 -14z m-1801 -4 c0 -5 -12 -15 -27 -22 -69
-32 -93 -40 -93 -30 0 10 49 38 90 51 14 4 26 8 28 8 1 1 2 -3 2 -7z m215 -12
c-3 -5 -14 -10 -23 -10 -15 0 -15 2 -2 10 20 13 33 13 25 0z m104 -4 c-10 -10
-200 -87 -228 -92 -54 -11 -34 4 37 26 37 12 94 34 127 49 51 24 79 31 64 17z
m1824 -14 c24 -21 21 -32 -8 -32 -17 0 -28 7 -34 23 -16 40 1 44 42 9z m107 8
c0 -11 -7 -20 -15 -20 -15 0 -21 21 -8 33 12 13 23 7 23 -13z m-2435 -10 c-19
-21 -45 -27 -45 -10 0 11 30 29 49 30 11 0 10 -5 -4 -20z m2864 -76 c-9 -11
-8 -14 2 -15 17 -1 -40 -28 -61 -29 -8 0 2 14 23 31 31 26 37 37 39 72 l1 42
4 -43 c3 -25 -1 -50 -8 -58z m-2519 81 c0 -8 -82 -45 -100 -44 -8 0 10 11 40
24 63 28 60 27 60 20z m-445 -25 c-3 -5 -10 -10 -16 -10 -5 0 -9 5 -9 10 0 6
7 10 16 10 8 0 12 -4 9 -10z m2371 -11 c21 -18 101 -32 109 -18 7 10 35 0 35
-12 0 -5 -6 -9 -13 -9 -7 0 -24 -13 -37 -28 l-24 -28 -36 22 c-19 12 -44 32
-56 43 -27 27 -31 27 -64 -9 -20 -22 -37 -30 -61 -30 l-33 0 22 22 c17 17 24
20 34 10 7 -7 16 -12 20 -12 12 0 10 38 -2 45 -21 13 -8 20 39 20 31 0 56 -6
67 -16z m728 12 c9 -14 -22 -34 -40 -27 -13 5 -14 9 -4 21 14 17 36 20 44 6z
m-414 -5 c0 -2 3 -11 6 -20 4 -11 0 -16 -13 -16 -12 0 -19 7 -19 20 0 11 6 20
13 20 7 0 13 -2 13 -4z m-450 -10 c0 -3 -4 -8 -10 -11 -5 -3 -10 -1 -10 4 0 6
5 11 10 11 6 0 10 -2 10 -4z m-2245 -16 c-3 -5 -11 -10 -16 -10 -6 0 -7 5 -4
10 3 6 11 10 16 10 6 0 7 -4 4 -10z m105 1 c0 -12 -20 -25 -27 -18 -7 7 6 27
18 27 5 0 9 -4 9 -9z m2669 -18 l22 22 -18 -32 c-10 -18 -21 -33 -24 -33 -17
0 -51 38 -45 49 6 9 13 7 25 -8 17 -20 18 -20 40 2z m-2489 0 c-8 -3 -32 -14
-52 -25 -21 -10 -38 -14 -38 -9 0 10 67 40 90 40 13 -1 13 -1 0 -6z m2360 3
c0 -2 -8 -10 -17 -17 -16 -13 -17 -12 -4 4 13 16 21 21 21 13z m175 -5 c3 -5
1 -12 -5 -16 -5 -3 -10 1 -10 9 0 18 6 21 15 7z m115 5 c0 -2 -8 -10 -17 -17
-16 -13 -17 -12 -4 4 13 16 21 21 21 13z m-2940 -21 c-7 -9 -15 -13 -17 -11
-7 7 7 26 19 26 6 0 6 -6 -2 -15z m480 -4 c-8 -5 -31 -11 -50 -15 l-35 -6 35
14 c41 17 75 21 50 7z m325 -1 c3 -5 30 -9 58 -9 l52 2 -40 7 c-35 6 -32 7 25
7 73 1 134 -10 110 -20 -25 -9 -91 -16 -86 -9 2 4 -21 5 -51 4 -69 -5 -133 6
-112 19 19 12 36 11 44 -1z m910 -1 c-58 -12 -104 -11 -85 1 8 5 40 9 70 9
l55 -1 -40 -9z m204 -3 c9 -11 7 -15 -11 -19 -33 -8 -207 -11 -215 -3 -3 3 11
7 33 8 21 1 53 3 69 4 17 1 44 3 62 5 18 1 30 6 27 11 -9 14 23 9 35 -6z m404
-25 c-9 -24 -45 -61 -54 -55 -17 10 -9 45 17 71 20 20 28 23 34 13 5 -7 6 -20
3 -29z m-2218 19 c3 -6 -4 -10 -17 -10 -18 0 -20 2 -8 10 19 12 18 12 25 0z
m200 -5 c-51 -22 -82 -26 -40 -5 22 11 47 19 55 19 8 0 2 -6 -15 -14z m1127 3
c-16 -16 -149 -23 -200 -12 -35 8 -33 9 33 14 134 12 180 11 167 -2z m729 -9
c9 -17 8 -20 -2 -14 -7 5 -10 4 -6 -3 4 -5 4 -17 1 -26 -4 -12 -9 -12 -18 -3
-10 8 -10 18 -2 39 12 34 12 34 27 7z m-2151 1 c0 -5 -5 -10 -11 -10 -5 0 -7
5 -4 10 3 6 8 10 11 10 2 0 4 -4 4 -10z m160 -11 c0 -5 -4 -9 -10 -9 -5 0 -10
7 -10 16 0 8 5 12 10 9 6 -3 10 -10 10 -16z m992 4 c21 -18 24 -37 6 -30 -51
18 -58 18 -58 -1 0 -28 25 -34 67 -17 19 8 45 15 57 15 32 0 166 -33 166 -41
0 -6 -72 -39 -87 -39 -4 0 -2 5 5 12 7 7 12 18 12 25 0 10 -6 10 -25 -3 -17
-11 -47 -16 -107 -16 -240 1 -278 -2 -278 -21 0 -16 -6 -17 -52 -11 -29 4 -62
11 -73 17 -10 5 -55 11 -100 13 -44 1 -114 7 -155 13 -73 10 -140 0 -140 -20
0 -16 20 -19 78 -11 35 5 69 4 83 -1 52 -20 166 -47 209 -48 l45 -2 -50 -6
c-33 -4 -49 -10 -47 -19 1 -7 -15 -20 -35 -29 -35 -15 -45 -15 -123 1 -47 9
-90 24 -97 32 -9 12 -28 15 -87 12 -57 -2 -76 0 -76 10 0 7 -7 15 -16 19 -12
4 -8 9 17 20 19 8 43 22 54 32 11 10 41 26 67 36 49 18 78 18 263 -4 194 -23
208 -24 201 -13 -4 6 13 17 41 27 27 9 68 27 93 40 53 28 116 32 142 8z m1988
8 c0 -11 -70 -45 -77 -38 -3 3 12 15 34 26 45 24 43 23 43 12z m-1545 -11 c13
-6 -13 -9 -75 -9 -65 -1 -90 2 -80 9 18 12 127 12 155 0z m-656 -16 c2 -2 -9
-8 -25 -15 -19 -7 -57 -8 -114 -3 -83 8 -84 8 -35 14 48 6 49 6 15 11 -19 3 8
4 60 1 52 -3 97 -6 99 -8z m1141 4 c0 -7 -7 -22 -15 -32 -11 -15 -18 -17 -27
-8 -8 8 -5 16 13 31 29 24 29 24 29 9z m100 -13 c-7 -9 -15 -13 -18 -10 -3 2
1 11 8 20 7 9 15 13 18 10 3 -2 -1 -11 -8 -20z m210 19 c0 -13 -21 -42 -35
-48 -20 -7 -20 18 1 38 15 16 34 21 34 10z m-2456 -13 c8 -12 -29 -21 -83 -21
-55 0 -48 9 16 20 26 4 51 8 55 9 4 0 9 -3 12 -8z m81 -28 c3 -13 2 -23 -3
-23 -11 0 -22 24 -22 48 0 21 15 5 25 -25z m85 27 c0 -5 -4 -10 -10 -10 -5 0
-10 5 -10 10 0 6 5 10 10 10 6 0 10 -4 10 -10z m460 6 c0 -2 -7 -7 -16 -10 -8
-3 -12 -2 -9 4 6 10 25 14 25 6z m-290 -26 c-20 -13 -40 -13 -40 0 0 6 12 10
28 10 21 0 24 -2 12 -10z m60 -24 c0 -2 -7 -7 -16 -10 -8 -3 -12 -2 -9 4 6 10
25 14 25 6z m1795 -5 c3 -6 18 -6 38 0 17 5 43 9 57 9 44 -1 -50 -30 -96 -30
-28 0 -44 -5 -48 -15 -4 -11 -20 -15 -56 -15 -32 0 -49 -4 -45 -10 9 -15 60
-12 102 5 19 8 43 15 52 15 21 0 71 -23 71 -32 0 -32 -253 -45 -305 -16 -21
12 -25 17 -12 18 23 0 22 21 -3 27 -11 3 -20 9 -20 13 0 13 51 21 140 24 44 2
83 6 87 10 9 9 31 7 38 -3z m-383 -16 c9 -3 18 -14 21 -24 2 -10 18 -21 35
-24 17 -4 36 -16 43 -28 11 -21 10 -22 -28 -17 -23 3 -53 0 -71 -8 -27 -11
-39 -11 -77 3 -26 8 -43 18 -40 22 4 3 37 8 73 11 l67 5 -42 28 c-50 32 -63
35 -38 7 18 -20 17 -20 -8 -20 -14 0 -30 7 -34 15 -7 12 -19 13 -68 5 -33 -5
-85 -10 -115 -9 l-55 1 35 15 c19 9 58 19 85 24 54 8 189 5 217 -6z m-1687
-18 c8 -13 27 -29 41 -36 15 -6 24 -14 21 -17 -7 -8 -97 54 -97 66 0 18 19 10
35 -13z m755 -26 l95 -19 -83 -1 c-87 -1 -176 15 -166 30 8 13 47 10 154 -10z
m1030 9 c18 -12 2 -12 -25 0 -13 6 -15 9 -5 9 8 0 22 -4 30 -9z m-705 -10 c3
-5 -3 -10 -15 -10 -12 0 -18 5 -15 10 3 6 10 10 15 10 5 0 12 -4 15 -10z m12
-26 c-3 -3 -12 -4 -19 -1 -8 3 -5 6 6 6 11 1 17 -2 13 -5z m473 -59 c0 -3 -17
-5 -37 -5 -35 1 -37 2 -19 15 13 10 24 11 37 4 11 -5 19 -12 19 -14z m310 -4
c43 -20 43 -21 10 -14 -19 4 -66 6 -104 5 -59 -2 -67 0 -57 12 10 12 8 15 -11
20 -13 2 9 3 47 2 45 -3 86 -11 115 -25z m-1735 9 c-11 -5 -32 -9 -47 -9 -41
-1 -34 -17 10 -25 57 -9 104 -7 97 4 -17 27 94 38 212 21 73 -11 150 -55 117
-68 -30 -12 -295 -8 -339 5 -22 6 -89 14 -150 18 -74 5 -102 10 -85 15 14 4
48 17 75 28 48 19 155 30 110 11z m1527 -46 c25 -4 69 -1 97 6 44 10 55 10 90
-7 22 -10 41 -21 41 -25 0 -4 -17 -12 -37 -17 -46 -13 -56 -14 -49 -2 5 8
-132 21 -225 21 -26 0 -55 3 -64 7 -27 10 33 33 70 27 17 -2 51 -7 77 -10z
m-1482 -39 l65 -14 -60 5 c-33 3 -76 9 -95 14 -35 8 -35 8 -5 9 17 0 59 -6 95
-14z m-450 -55 c0 -6 -37 -10 -92 -9 -65 1 -84 4 -63 9 45 12 155 12 155 0z
m-62 -67 c-10 -2 -26 -2 -35 0 -10 3 -2 5 17 5 19 0 27 -2 18 -5z"/>
<path d="M3820 7510 c20 -13 43 -13 35 0 -3 6 -16 10 -28 10 -18 0 -19 -2 -7
-10z"/>
<path d="M5501 8061 c57 -43 145 -116 194 -161 l90 -82 -93 91 c-88 85 -269
231 -286 231 -5 0 38 -36 95 -79z"/>
<path d="M5230 8067 c0 -3 12 -12 26 -22 15 -9 23 -12 20 -6 -7 11 -46 35 -46
28z"/>
<path d="M5290 8026 c0 -2 8 -10 18 -17 15 -13 16 -12 3 4 -13 16 -21 21 -21
13z"/>
<path d="M5420 7913 c81 -76 145 -147 225 -248 12 -14 11 -10 -2 13 -24 44
-163 192 -249 266 -49 42 -41 33 26 -31z"/>
<path d="M4806 7820 c20 -36 74 -100 74 -88 1 7 31 -18 67 -57 69 -73 60 -56
-17 33 -25 29 -50 52 -57 52 -6 0 -26 17 -44 38 -17 20 -28 30 -23 22z"/>
<path d="M5129 7784 c11 -17 27 -37 36 -44 9 -7 35 -40 57 -72 23 -32 43 -56
46 -53 6 6 -62 96 -117 155 -31 32 -37 36 -22 14z"/>
<path d="M5244 7758 c66 -80 87 -103 79 -88 -17 33 -96 130 -105 130 -5 0 7
-19 26 -42z"/>
<path d="M5810 7761 c0 -6 4 -13 10 -16 6 -3 7 1 4 9 -7 18 -14 21 -14 7z"/>
<path d="M4910 7676 c0 -2 8 -10 18 -17 15 -13 16 -12 3 4 -13 16 -21 21 -21
13z"/>
<path d="M5177 7652 c3 -12 9 -25 14 -28 14 -8 11 10 -6 32 -13 18 -14 18 -8
-4z"/>
<path d="M5706 7657 c3 -10 9 -15 12 -12 3 3 0 11 -7 18 -10 9 -11 8 -5 -6z"/>
<path d="M5626 7615 c20 -65 43 -117 44 -100 0 11 -12 43 -25 70 -14 28 -23
41 -19 30z"/>
<path d="M5700 7560 c29 -85 35 -71 8 18 -5 17 -13 32 -17 32 -4 0 0 -23 9
-50z"/>
<path d="M5781 7574 c0 -11 3 -14 6 -6 3 7 2 16 -1 19 -3 4 -6 -2 -5 -13z"/>
<path d="M5791 7534 c0 -11 3 -14 6 -6 3 7 2 16 -1 19 -3 4 -6 -2 -5 -13z"/>
<path d="M4561 7630 c-1 -3 10 -32 24 -65 13 -33 25 -53 25 -45 0 14 -48 121
-49 110z"/>
<path d="M4616 7607 c3 -10 9 -15 12 -12 3 3 0 11 -7 18 -10 9 -11 8 -5 -6z"/>
<path d="M4630 7575 c0 -5 5 -17 10 -25 5 -8 10 -10 10 -5 0 6 -5 17 -10 25
-5 8 -10 11 -10 5z"/>
<path d="M4462 7510 c0 -14 2 -19 5 -12 2 6 2 18 0 25 -3 6 -5 1 -5 -13z"/>
<path d="M4792 7510 c0 -14 2 -19 5 -12 2 6 2 18 0 25 -3 6 -5 1 -5 -13z"/>
<path d="M4511 7494 c0 -11 3 -14 6 -6 3 7 2 16 -1 19 -3 4 -6 -2 -5 -13z"/>
<path d="M4611 7484 c0 -11 3 -14 6 -6 3 7 2 16 -1 19 -3 4 -6 -2 -5 -13z"/>
<path d="M4472 7450 c0 -14 2 -19 5 -12 2 6 2 18 0 25 -3 6 -5 1 -5 -13z"/>
<path d="M4521 7454 c0 -11 3 -14 6 -6 3 7 2 16 -1 19 -3 4 -6 -2 -5 -13z"/>
<path d="M4613 7415 c0 -22 2 -30 4 -17 2 12 2 30 0 40 -3 9 -5 -1 -4 -23z"/>
<path d="M4521 7374 c0 -11 3 -14 6 -6 3 7 2 16 -1 19 -3 4 -6 -2 -5 -13z"/>
<path d="M4461 7324 c0 -11 3 -14 6 -6 3 7 2 16 -1 19 -3 4 -6 -2 -5 -13z"/>
<path d="M4363 7128 c-23 -30 -24 -41 -2 -21 12 12 20 25 17 28 -3 3 -10 0
-15 -7z"/>
<path d="M4379 7073 c-13 -16 -12 -17 4 -4 9 7 17 15 17 17 0 8 -8 3 -21 -13z"/>
<path d="M3620 7267 c0 -4 11 -29 24 -55 13 -26 32 -71 41 -100 10 -29 19 -51
21 -49 8 8 -37 133 -61 172 -14 22 -25 36 -25 32z"/>
<path d="M3847 7110 c3 -11 7 -20 9 -20 2 0 4 9 4 20 0 11 -4 20 -9 20 -5 0
-7 -9 -4 -20z"/>
<path d="M3921 7069 c-1 -3 4 -32 10 -65 6 -32 15 -111 19 -174 l8 -115 -3
135 c-2 87 -8 151 -18 180 -8 25 -15 42 -16 39z"/>
<path d="M3974 7027 c3 -10 11 -60 16 -110 18 -161 18 -164 15 -46 -2 86 -8
125 -20 145 -9 16 -14 21 -11 11z"/>
<path d="M3883 6988 c5 -24 10 -102 11 -175 1 -84 4 -124 10 -110 9 24 2 282
-9 310 -14 34 -23 16 -12 -25z"/>
<path d="M4042 6970 c0 -19 2 -27 5 -17 2 9 2 25 0 35 -3 9 -5 1 -5 -18z"/>
<path d="M4140 6853 c0 -49 4 -83 10 -83 13 0 13 130 0 150 -7 10 -10 -11 -10
-67z"/>
<path d="M4052 6839 c-1 -25 -4 -68 -7 -95 -5 -45 -4 -46 5 -16 6 18 9 61 7
95 -3 52 -3 54 -5 16z"/>
<path d="M4201 6840 c-1 -25 -4 -70 -7 -100 -3 -36 -2 -50 4 -40 13 21 21 130
12 160 -7 21 -8 17 -9 -20z"/>
<path d="M3725 6770 c-4 -17 -5 -34 -2 -36 3 -3 8 9 12 26 4 17 5 34 2 36 -3
3 -8 -9 -12 -26z"/>
<path d="M4231 6703 c0 -6 -4 -20 -7 -30 -5 -14 -4 -15 5 -7 7 7 11 20 8 30
-3 11 -5 14 -6 7z"/>
<path d="M3623 6523 c42 -2 112 -2 155 0 42 1 7 3 -78 3 -85 0 -120 -2 -77 -3z"/>
<path d="M3493 6513 c9 -2 23 -2 30 0 6 3 -1 5 -18 5 -16 0 -22 -2 -12 -5z"/>
<path d="M3946 6500 c49 -10 127 -28 172 -40 44 -12 87 -20 94 -17 29 10 -255
77 -322 76 -22 0 -1 -8 56 -19z"/>
<path d="M4250 6480 c0 -5 7 -7 15 -4 8 4 15 8 15 10 0 2 -7 4 -15 4 -8 0 -15
-4 -15 -10z"/>
<path d="M4264 6456 c-10 -8 -16 -17 -13 -20 3 -3 14 1 25 8 10 8 16 17 13 20
-3 3 -14 -1 -25 -8z"/>
<path d="M4260 6420 c-13 -8 -12 -10 4 -10 12 0 16 -5 12 -15 -3 -8 -1 -15 4
-15 6 0 10 11 10 25 0 27 -7 30 -30 15z"/>
<path d="M4330 6380 c0 -11 2 -20 4 -20 2 0 6 9 9 20 3 11 1 20 -4 20 -5 0 -9
-9 -9 -20z"/>
<path d="M4240 6332 c0 -12 3 -12 15 -2 8 7 15 13 15 15 0 1 -7 2 -15 2 -8 0
-15 -7 -15 -15z"/>
<path d="M4276 6322 c-2 -4 -1 -14 5 -22 7 -12 9 -10 9 8 0 23 -5 28 -14 14z"/>
<path d="M4278 6220 c-2 -22 0 -40 4 -40 5 0 8 18 8 40 0 22 -2 40 -4 40 -2 0
-6 -18 -8 -40z"/>
<path d="M4230 6196 c0 -14 4 -27 9 -30 4 -3 8 8 7 24 -1 36 -16 41 -16 6z"/>
<path d="M4633 6083 c9 -2 25 -2 35 0 9 3 1 5 -18 5 -19 0 -27 -2 -17 -5z"/>
<path d="M5751 7394 c0 -11 3 -14 6 -6 3 7 2 16 -1 19 -3 4 -6 -2 -5 -13z"/>
<path d="M4766 5791 c-7 -11 14 -74 28 -83 20 -14 103 -9 116 7 9 10 9 15 1
15 -6 0 -11 5 -11 10 0 6 7 10 15 10 28 0 15 18 -25 34 -44 17 -115 21 -124 7z
m84 -46 c15 -19 5 -34 -12 -17 -8 8 -15 8 -24 1 -8 -7 -14 -6 -19 2 -8 11 11
29 31 29 6 0 17 -7 24 -15z"/>
<path d="M5030 5775 c0 -8 11 -22 25 -31 14 -9 25 -23 25 -30 0 -15 28 -19 45
-6 6 4 11 21 13 38 3 29 0 32 -35 38 -58 9 -73 7 -73 -9z m85 -45 c3 -5 -1
-10 -9 -10 -9 0 -16 5 -16 10 0 6 4 10 9 10 6 0 13 -4 16 -10z"/>
<path d="M5313 5783 l-32 -4 13 -37 c12 -35 16 -37 61 -40 26 -2 52 1 56 5 5
5 3 25 -3 46 -12 39 -14 40 -95 30z m57 -64 c0 -12 -27 -11 -35 1 -11 17 5 32
21 19 8 -6 14 -15 14 -20z"/>
<path d="M6708 7274 c53 -42 122 -148 168 -262 47 -115 60 -126 19 -15 -40
105 -92 193 -148 251 -28 28 -56 52 -62 52 -5 0 5 -12 23 -26z"/>
<path d="M6820 7274 c0 -6 19 -28 41 -49 23 -22 54 -58 70 -79 16 -21 29 -34
29 -28 0 13 -67 97 -109 136 -17 17 -31 25 -31 20z"/>
<path d="M6856 7197 c3 -10 9 -15 12 -12 3 3 0 11 -7 18 -10 9 -11 8 -5 -6z"/>
<path d="M6950 7186 c0 -5 16 -28 35 -52 34 -42 95 -157 95 -181 0 -6 4 -15
10 -18 26 -16 -46 138 -93 200 -42 55 -47 60 -47 51z"/>
<path d="M6929 7079 c45 -82 84 -190 96 -260 5 -24 10 -39 12 -32 14 39 -75
277 -128 343 -11 14 -2 -9 20 -51z"/>
<path d="M6980 7068 c5 -13 25 -61 44 -108 19 -47 35 -80 36 -75 0 17 -71 194
-81 200 -5 4 -5 -3 1 -17z"/>
<path d="M6536 6848 c15 -29 35 -75 46 -103 10 -27 16 -36 13 -20 -7 33 -71
175 -80 175 -3 0 7 -24 21 -52z"/>
<path d="M7106 6860 c8 -43 14 -51 14 -19 0 13 -5 31 -10 39 -7 11 -8 5 -4
-20z"/>
<path d="M6625 6858 c4 -13 15 -52 26 -88 10 -36 18 -55 18 -44 1 26 -37 154
-46 154 -3 0 -2 -10 2 -22z"/>
<path d="M6469 6815 c10 -22 24 -60 31 -85 7 -25 15 -40 17 -34 5 15 -32 114
-52 140 -11 12 -9 5 4 -21z"/>
<path d="M6940 6838 c0 -9 5 -20 10 -23 13 -8 13 5 0 25 -8 13 -10 13 -10 -2z"/>
<path d="M6861 6784 c0 -11 3 -14 6 -6 3 7 2 16 -1 19 -3 4 -6 -2 -5 -13z"/>
<path d="M7083 6710 c0 -41 2 -58 4 -37 2 20 2 54 0 75 -2 20 -4 3 -4 -38z"/>
<path d="M6872 6740 c0 -14 2 -19 5 -12 2 6 2 18 0 25 -3 6 -5 1 -5 -13z"/>
<path d="M6822 6725 c0 -16 2 -22 5 -12 2 9 2 23 0 30 -3 6 -5 -1 -5 -18z"/>
<path d="M6542 6715 c0 -16 2 -22 5 -12 2 9 2 23 0 30 -3 6 -5 -1 -5 -18z"/>
<path d="M6973 6660 c0 -47 2 -66 4 -42 2 23 2 61 0 85 -2 23 -4 4 -4 -43z"/>
<path d="M6673 6635 c0 -38 2 -53 4 -32 2 20 2 52 0 70 -2 17 -4 1 -4 -38z"/>
<path d="M6882 6680 c0 -14 2 -19 5 -12 2 6 2 18 0 25 -3 6 -5 1 -5 -13z"/>
<path d="M6834 6595 c0 -55 -2 -113 -7 -130 -6 -24 -5 -27 4 -12 16 27 22 124
11 187 -9 51 -9 48 -8 -45z"/>
<path d="M6934 6604 c-14 -121 -54 -206 -130 -280 -31 -30 -54 -57 -51 -60 2
-3 27 17 54 43 85 83 153 256 141 360 -2 15 -8 -13 -14 -63z"/>
<path d="M6803 6595 c0 -33 2 -45 4 -27 2 18 2 45 0 60 -2 15 -4 0 -4 -33z"/>
<path d="M6893 6595 c0 -22 2 -30 4 -17 2 12 2 30 0 40 -3 9 -5 -1 -4 -23z"/>
<path d="M7072 6600 c0 -14 2 -19 5 -12 2 6 2 18 0 25 -3 6 -5 1 -5 -13z"/>
<path d="M6712 6570 c0 -19 2 -27 5 -17 2 9 2 25 0 35 -3 9 -5 1 -5 -18z"/>
<path d="M6750 6543 c-3 -23 -2 -39 3 -34 5 5 7 24 5 42 -3 33 -4 33 -8 -8z"/>
<path d="M7061 6544 c0 -11 3 -14 6 -6 3 7 2 16 -1 19 -3 4 -6 -2 -5 -13z"/>
<path d="M6881 6533 c-3 -58 -79 -198 -97 -180 -4 3 -1 13 6 22 21 26 -5 17
-31 -11 -17 -18 -19 -23 -6 -18 12 4 17 1 17 -10 0 -24 12 -18 44 20 35 43 79
148 73 177 l-4 22 -2 -22z"/>
<path d="M6789 6498 c-3 -22 -1 -34 4 -29 5 5 7 21 5 37 -3 27 -4 26 -9 -8z"/>
<path d="M6690 6471 c0 -5 -8 -12 -17 -14 -14 -4 -12 -5 5 -6 13 -1 22 5 22
14 0 8 -2 15 -5 15 -3 0 -5 -4 -5 -9z"/>
<path d="M6707 6426 c-4 -10 0 -12 15 -8 18 4 20 2 16 -16 -8 -28 7 -28 26 0
20 29 20 44 1 28 -12 -10 -19 -10 -27 -2 -16 16 -25 15 -31 -2z"/>
<path d="M6956 6425 c-9 -26 -7 -32 5 -12 6 10 9 21 6 23 -2 3 -7 -2 -11 -11z"/>
<path d="M6653 6209 c-35 -22 -46 -37 -15 -20 22 13 58 40 52 41 -3 0 -20 -10
-37 -21z"/>
<path d="M4961 6763 c1 -10 5 -31 9 -48 7 -28 8 -28 9 12 0 23 -3 45 -9 48 -5
3 -9 -2 -9 -12z"/>
<path d="M5030 6390 c0 -5 -8 -11 -17 -13 -14 -4 -13 -5 4 -6 12 0 23 -9 25
-18 3 -13 6 -10 10 9 3 18 0 29 -8 32 -8 3 -14 1 -14 -4z"/>
<path d="M5038 6293 c7 -3 16 -2 19 1 4 3 -2 6 -13 5 -11 0 -14 -3 -6 -6z"/>
<path d="M5045 6260 c-3 -5 1 -10 9 -10 9 0 16 5 16 10 0 6 -4 10 -9 10 -6 0
-13 -4 -16 -10z"/>
<path d="M5045 6200 c-3 -5 -2 -10 4 -10 5 0 13 5 16 10 3 6 2 10 -4 10 -5 0
-13 -4 -16 -10z"/>
<path d="M5088 6153 c6 -2 18 -2 25 0 6 3 1 5 -13 5 -14 0 -19 -2 -12 -5z"/>
<path d="M5098 6093 c7 -3 16 -2 19 1 4 3 -2 6 -13 5 -11 0 -14 -3 -6 -6z"/>
<path d="M5949 6692 c5 -10 12 -36 14 -58 3 -21 6 -43 7 -49 6 -24 -1 -37 -16
-31 -14 5 -15 -2 -9 -58 4 -35 11 -79 16 -97 7 -27 7 -22 3 21 -2 30 -7 70
-10 88 -5 25 -3 32 9 32 17 0 37 -55 37 -99 0 -31 21 -91 32 -91 10 0 10 -3
-6 45 -9 25 -11 46 -5 56 6 12 4 19 -6 23 -8 3 -15 16 -15 28 1 23 -14 102
-31 171 -6 20 -14 37 -20 37 -6 0 -6 -6 0 -18z"/>
<path d="M5921 6684 c0 -11 3 -14 6 -6 3 7 2 16 -1 19 -3 4 -6 -2 -5 -13z"/>
<path d="M4657 6440 c-9 -24 -15 -46 -12 -48 7 -7 37 68 33 80 -2 6 -12 -9
-21 -32z"/>
<path d="M4852 6260 c0 -19 2 -27 5 -17 2 9 2 25 0 35 -3 9 -5 1 -5 -18z"/>
<path d="M6121 5874 c0 -11 3 -14 6 -6 3 7 2 16 -1 19 -3 4 -6 -2 -5 -13z"/>
<path d="M5788 5713 c6 -2 18 -2 25 0 6 3 1 5 -13 5 -14 0 -19 -2 -12 -5z"/>
<path d="M5690 5635 c0 -5 5 -17 10 -25 5 -8 10 -10 10 -5 0 6 -5 17 -10 25
-5 8 -10 11 -10 5z"/>
<path d="M5756 5617 c3 -10 9 -15 12 -12 3 3 0 11 -7 18 -10 9 -11 8 -5 -6z"/>
<path d="M6505 5830 c-13 -5 -14 -9 -5 -9 8 0 24 4 35 9 13 5 14 9 5 9 -8 0
-24 -4 -35 -9z"/>
<path d="M6370 5701 c0 -5 5 -13 10 -16 6 -3 10 -2 10 4 0 5 -4 13 -10 16 -5
3 -10 2 -10 -4z"/>
<path d="M4110 5706 c0 -14 48 -32 58 -22 2 3 -1 12 -8 21 -16 19 -50 20 -50
1z"/>
<path d="M4202 5688 c3 -7 17 -14 32 -16 20 -3 27 0 24 10 -3 7 -17 14 -32 16
-20 3 -27 0 -24 -10z"/>
<path d="M4506 5600 c3 -14 11 -32 16 -40 6 -10 7 -7 2 10 -3 14 -11 32 -16
40 -6 10 -7 7 -2 -10z"/>
<path d="M4481 5584 c0 -11 3 -14 6 -6 3 7 2 16 -1 19 -3 4 -6 -2 -5 -13z"/>
<path d="M4870 5571 c0 -5 5 -13 10 -16 6 -3 10 -2 10 4 0 5 -4 13 -10 16 -5
3 -10 2 -10 -4z"/>
<path d="M4958 5363 c12 -2 30 -2 40 0 9 3 -1 5 -23 4 -22 0 -30 -2 -17 -4z"/>
<path d="M4853 5333 c9 -2 23 -2 30 0 6 3 -1 5 -18 5 -16 0 -22 -2 -12 -5z"/>
<path d="M5050 5330 c-18 -12 109 -12 155 0 21 5 5 8 -55 9 -47 0 -92 -4 -100
-9z"/>
<path d="M5128 5303 c18 -2 45 -2 60 0 15 2 0 4 -33 4 -33 0 -45 -2 -27 -4z"/>
<path d="M4770 5210 c0 -6 33 -10 79 -10 44 0 83 5 86 10 4 6 -25 10 -79 10
-51 0 -86 -4 -86 -10z"/>
<path d="M4858 5163 c6 -2 18 -2 25 0 6 3 1 5 -13 5 -14 0 -19 -2 -12 -5z"/>
<path d="M6021 5114 c0 -11 3 -14 6 -6 3 7 2 16 -1 19 -3 4 -6 -2 -5 -13z"/>
<path d="M4598 5033 c12 -2 32 -2 45 0 12 2 2 4 -23 4 -25 0 -35 -2 -22 -4z"/>
<path d="M4528 5023 c6 -2 18 -2 25 0 6 3 1 5 -13 5 -14 0 -19 -2 -12 -5z"/>
<path d="M4018 4833 c7 -3 16 -2 19 1 4 3 -2 6 -13 5 -11 0 -14 -3 -6 -6z"/>
<path d="M4797 8562 c-44 -45 -46 -55 -11 -42 33 13 34 13 28 -4 -8 -20 12
-29 36 -16 15 8 19 17 14 32 -3 12 -1 24 6 28 18 11 5 40 -18 40 -10 0 -35
-17 -55 -38z"/>
<path d="M4757 8179 c7 -7 15 -10 18 -7 3 3 -2 9 -12 12 -14 6 -15 5 -6 -5z"/>
<path d="M5936 7767 c3 -10 9 -15 12 -12 3 3 0 11 -7 18 -10 9 -11 8 -5 -6z"/>
<path d="M6060 7740 c8 -5 20 -10 25 -10 6 0 3 5 -5 10 -8 5 -19 10 -25 10 -5
0 -3 -5 5 -10z"/>
<path d="M5952 7649 c-1 -20 -9 -56 -17 -79 -13 -37 -13 -41 0 -30 18 15 28
65 22 111 l-4 34 -1 -36z"/>
<path d="M6046 7463 c-6 -14 -5 -15 5 -6 7 7 10 15 7 18 -3 3 -9 -2 -12 -12z"/>
<path d="M7261 7297 c8 -9 141 -58 146 -54 2 2 -25 14 -59 27 -92 33 -93 34
-87 27z"/>
<path d="M7430 7230 c8 -5 20 -10 25 -10 6 0 3 5 -5 10 -8 5 -19 10 -25 10 -5
0 -3 -5 5 -10z"/>
<path d="M7500 7206 c0 -2 7 -7 16 -10 8 -3 12 -2 9 4 -6 10 -25 14 -25 6z"/>
<path d="M7567 6893 c-4 -3 -7 -11 -7 -17 0 -6 5 -5 12 2 6 6 9 14 7 17 -3 3
-9 2 -12 -2z"/>
<path d="M7499 6853 l-24 -28 28 24 c15 14 27 26 27 28 0 8 -8 1 -31 -24z"/>
<path d="M7828 6783 c7 -3 16 -2 19 1 4 3 -2 6 -13 5 -11 0 -14 -3 -6 -6z"/>
<path d="M7650 6710 c-8 -5 -10 -10 -5 -10 6 0 17 5 25 10 8 5 11 10 5 10 -5
0 -17 -5 -25 -10z"/>
<path d="M7563 6683 c9 -2 25 -2 35 0 9 3 1 5 -18 5 -19 0 -27 -2 -17 -5z"/>
<path d="M3347 5319 c7 -7 15 -10 18 -7 3 3 -2 9 -12 12 -14 6 -15 5 -6 -5z"/>
<path d="M3518 5323 c7 -3 16 -2 19 1 4 3 -2 6 -13 5 -11 0 -14 -3 -6 -6z"/>
<path d="M3110 5140 c-25 -3 43 -6 151 -6 109 1 192 4 185 8 -13 9 -272 8
-336 -2z"/>
<path d="M6380 5040 c-14 -4 -42 -8 -62 -9 -43 -1 -53 -21 -10 -21 36 0 100
18 107 30 7 11 0 11 -35 0z"/>
<path d="M3117 4993 c18 -2 50 -2 70 0 21 2 7 4 -32 4 -38 0 -55 -2 -38 -4z"/>
<path d="M5932 4989 c8 -24 51 -39 115 -39 59 0 86 11 63 25 -6 4 -36 8 -68 9
-31 2 -70 7 -86 11 -22 6 -28 5 -24 -6z"/>
<path d="M2863 4943 c15 -2 37 -2 50 0 12 2 0 4 -28 4 -27 0 -38 -2 -22 -4z"/>
<path d="M6575 4920 c-11 -5 -37 -9 -57 -9 -21 -1 -38 -5 -38 -11 0 -17 68
-23 178 -15 102 7 105 8 71 20 -50 18 -130 26 -154 15z"/>
<path d="M3183 4913 c9 -2 25 -2 35 0 9 3 1 5 -18 5 -19 0 -27 -2 -17 -5z"/>
<path d="M6251 4911 c-10 -7 -8 -10 10 -16 13 -3 34 -11 45 -17 24 -11 134 15
134 32 0 13 -21 13 -76 -1 -34 -9 -48 -9 -57 0 -13 13 -37 14 -56 2z"/>
<path d="M3248 4903 c6 -2 18 -2 25 0 6 3 1 5 -13 5 -14 0 -19 -2 -12 -5z"/>
<path d="M6440 4821 c0 -5 -12 -14 -27 -19 -19 -7 -22 -11 -10 -11 18 -1 77
25 77 34 0 3 -9 5 -20 5 -11 0 -20 -4 -20 -9z"/>
<path d="M6526 4822 c-14 -14 20 -32 58 -31 56 2 105 14 86 22 -22 8 -138 16
-144 9z"/>
<path d="M5868 4813 c7 -3 16 -2 19 1 4 3 -2 6 -13 5 -11 0 -14 -3 -6 -6z"/>
<path d="M5728 4793 c7 -3 16 -2 19 1 4 3 -2 6 -13 5 -11 0 -14 -3 -6 -6z"/>
<path d="M3038 4773 c34 -2 90 -2 125 0 34 2 6 3 -63 3 -69 0 -97 -1 -62 -3z"/>
<path d="M4840 4771 c13 -10 119 -16 109 -7 -2 2 -31 7 -64 10 -42 5 -56 4
-45 -3z"/>
<path d="M4865 4732 c19 -9 47 -13 87 -10 98 7 86 23 -19 24 -90 1 -94 0 -68
-14z"/>
<path d="M6260 4718 c0 -5 18 -8 40 -8 22 0 40 2 40 4 0 2 -18 6 -40 8 -22 2
-40 0 -40 -4z"/>
<path d="M3680 4695 c7 -9 27 -14 49 -14 34 2 34 2 6 6 -16 3 -34 9 -39 14
-16 15 -29 10 -16 -6z"/>
<path d="M5614 4683 c-17 -16 -39 -23 -93 -29 -39 -3 -71 -11 -71 -16 0 -12
-70 -1 -84 13 -15 14 -49 11 -74 -7 -12 -8 -55 -21 -95 -29 l-72 -13 50 -2
c44 -1 47 -3 25 -11 -14 -6 -57 -7 -100 -4 -55 5 -86 3 -117 -9 -23 -8 -74
-18 -113 -22 -45 -4 -67 -10 -58 -15 17 -11 346 -8 377 3 14 5 42 24 62 43 48
43 75 50 121 31 20 -9 61 -17 90 -19 29 -3 72 -13 94 -25 39 -20 44 -20 145
-7 57 8 161 15 232 15 70 0 127 4 127 9 0 14 -83 23 -269 30 l-173 6 18 23
c18 21 22 22 107 12 49 -6 105 -10 125 -10 20 0 56 -1 79 -3 25 -1 42 2 40 8
-1 6 -47 11 -107 12 -64 1 -132 8 -175 20 l-70 18 -21 -22z"/>
<path d="M5210 4681 c0 -13 24 -31 41 -31 33 0 29 17 -6 28 -19 5 -35 7 -35 3z"/>
<path d="M6200 4660 c-14 -4 -43 -9 -65 -10 -29 -1 -35 -3 -20 -9 33 -11 283
-7 295 5 8 8 -9 11 -67 11 -43 0 -87 2 -98 5 -11 3 -31 2 -45 -2z"/>
<path d="M3360 4637 c0 -3 15 -10 32 -16 18 -6 28 -7 23 -2 -12 10 -55 25 -55
18z"/>
<path d="M3470 4620 c0 -5 9 -10 19 -10 11 0 23 5 26 10 4 6 -5 10 -19 10 -14
0 -26 -4 -26 -10z"/>
<path d="M4355 4620 c-3 -5 1 -10 9 -10 9 0 16 5 16 10 0 6 -4 10 -9 10 -6 0
-13 -4 -16 -10z"/>
<path d="M4525 4610 c-11 -5 -38 -9 -60 -10 -82 -3 -82 -19 -1 -19 58 -1 91
-6 121 -21 33 -16 48 -18 75 -10 33 9 50 25 50 45 0 6 -29 10 -67 10 -38 0
-75 3 -83 7 -8 4 -24 3 -35 -2z"/>
<path d="M4198 4583 c7 -3 16 -2 19 1 4 3 -2 6 -13 5 -11 0 -14 -3 -6 -6z"/>
<path d="M4351 4552 c80 -27 86 -32 58 -49 l-24 -14 25 5 c14 3 28 6 33 6 4 0
7 7 7 15 0 10 11 15 33 16 l32 1 -30 9 c-16 5 -50 11 -75 13 -25 2 -61 6 -80
10 -20 4 -11 -2 21 -12z"/>
<path d="M5280 4561 c0 -25 64 -51 125 -51 80 0 105 16 39 24 -60 8 -123 21
-146 31 -11 4 -18 3 -18 -4z"/>
<path d="M3293 4543 c15 -2 37 -2 50 0 12 2 0 4 -28 4 -27 0 -38 -2 -22 -4z"/>
<path d="M5772 4498 c7 -4 45 -8 83 -8 39 0 76 4 83 8 7 5 -31 8 -83 8 -52 0
-90 -3 -83 -8z"/>
<path d="M5570 4490 c-56 -7 -44 -13 21 -10 21 1 53 -8 75 -19 41 -22 154 -30
154 -11 0 6 -17 10 -37 10 -21 1 -56 8 -78 16 -54 21 -70 23 -135 14z"/>
<path d="M4498 4483 c6 -2 18 -2 25 0 6 3 1 5 -13 5 -14 0 -19 -2 -12 -5z"/>
<path d="M4762 4473 c12 -14 62 -16 93 -4 14 6 2 10 -42 12 -48 3 -59 1 -51
-8z"/>
<path d="M4924 4475 c11 -8 39 -22 63 -31 39 -15 54 -16 121 -5 42 6 102 18
132 26 30 8 42 12 25 9 -16 -2 -84 -7 -151 -11 -99 -5 -125 -3 -152 11 -39 20
-64 21 -38 1z"/>
<path d="M3535 4439 c-14 -6 -5 -7 29 -3 30 3 51 2 55 -5 4 -6 18 -7 31 -4 22
6 23 7 4 14 -26 11 -95 10 -119 -2z"/>
<path d="M4510 4417 c-75 -20 -114 -18 -220 8 -24 6 -24 6 -6 -9 24 -20 16
-20 -28 -2 -30 12 -40 12 -77 0 -29 -11 -63 -13 -108 -10 -45 4 -60 3 -46 -3
11 -5 63 -10 116 -10 62 -1 110 -6 132 -16 20 -8 51 -15 69 -15 52 1 217 45
236 64 9 9 14 15 12 15 -3 -1 -39 -11 -80 -22z"/>
<path d="M3360 4420 c20 -13 33 -13 25 0 -3 6 -14 10 -23 10 -15 0 -15 -2 -2
-10z"/>
<path d="M4669 4400 c24 -21 61 -25 96 -10 26 10 10 16 -65 24 l-55 6 24 -20z"/>
<path d="M4900 4402 c0 -27 113 -49 164 -32 60 19 50 28 -32 26 -42 0 -89 2
-104 7 -16 4 -28 4 -28 -1z"/>
<path d="M3190 4366 c0 -2 7 -7 16 -10 8 -3 12 -2 9 4 -6 10 -25 14 -25 6z"/>
<path d="M4648 4264 c-56 -17 -98 -63 -98 -106 0 -39 43 -82 99 -99 l42 -13
-60 -18 c-147 -45 -133 -178 24 -223 47 -14 84 -16 184 -12 69 2 134 8 143 12
14 6 18 23 20 103 l3 97 33 -3 c31 -3 32 -3 32 37 0 40 -1 41 -35 41 -28 0
-35 4 -35 20 0 17 -7 20 -49 20 -41 0 -50 -3 -54 -22 -6 -20 -10 -21 -94 -15
-49 3 -101 11 -116 18 -31 14 -45 52 -28 73 27 33 188 46 254 21 14 -6 17 -1
17 33 0 36 -3 40 -31 46 -55 11 -202 5 -251 -10z m252 -323 c0 -34 -5 -63 -11
-67 -7 -4 -49 -7 -94 -7 -106 0 -160 23 -160 68 0 47 46 65 168 65 l97 0 0
-59z"/>
<path d="M8425 4271 c-127 -35 -199 -123 -197 -241 1 -96 39 -159 124 -205 45
-25 67 -30 143 -33 106 -5 156 7 221 51 64 43 95 103 95 184 1 151 -99 243
-271 249 -47 2 -98 -1 -115 -5z m195 -96 c71 -37 106 -127 77 -197 -53 -127
-259 -146 -337 -31 -62 91 -10 216 101 243 43 11 124 3 159 -15z"/>
<path d="M2057 4033 l2 -238 57 0 58 0 -3 102 -3 102 27 7 c43 11 123 -1 147
-22 11 -10 36 -51 54 -90 38 -84 62 -104 124 -104 67 1 80 15 80 91 0 52 -2
60 -12 46 -7 -9 -25 -19 -40 -22 -29 -7 -54 12 -108 83 -14 18 -42 39 -63 46
l-39 13 63 12 c48 10 70 20 96 46 29 29 33 40 33 83 0 78 -4 82 -71 82 -56 0
-59 -1 -49 -19 15 -29 12 -83 -6 -110 -25 -35 -75 -51 -160 -51 l-76 0 4 90 4
90 -60 0 -61 0 2 -237z"/>
<path d="M3035 4238 c-7 -34 -172 -360 -207 -411 -24 -33 -13 -40 58 -35 49 3
49 3 78 61 l29 58 135 -3 136 -3 28 -57 28 -58 60 0 c33 0 60 2 60 5 0 3 -22
45 -49 94 -70 124 -156 299 -170 344 l-13 37 -83 0 -83 0 -7 -32z m140 -156
l44 -92 -89 0 c-50 0 -90 2 -90 5 0 9 85 183 88 180 1 -1 22 -43 47 -93z"/>
<path d="M3705 4030 l0 -241 58 3 58 3 2 238 2 237 -60 0 -60 0 0 -240z"/>
<path d="M5765 4030 l0 -241 59 3 59 3 -2 101 c-2 115 -3 114 78 114 71 0 110
-30 141 -109 32 -80 67 -111 123 -111 68 0 87 20 87 91 l0 60 -30 -22 c-38
-29 -67 -17 -110 42 -34 48 -59 68 -98 79 -26 7 -25 8 13 14 115 21 155 56
155 136 0 76 -4 80 -70 80 l-58 0 10 -35 c15 -45 1 -92 -35 -119 -23 -17 -46
-22 -119 -25 l-90 -3 3 91 4 91 -60 0 -60 0 0 -240z"/>
<path d="M6749 4233 c-15 -47 -82 -183 -160 -325 -33 -59 -59 -109 -59 -112 0
-3 27 -6 60 -6 l59 0 28 58 28 57 136 3 136 3 29 -61 28 -60 58 0 c32 0 58 4
58 10 0 5 -22 50 -49 99 -79 141 -158 303 -166 339 l-7 32 -83 0 -83 0 -13
-37z m177 -240 c-2 -2 -42 -3 -89 -1 l-85 3 45 93 45 94 44 -93 c25 -50 43
-94 40 -96z"/>
<path d="M7425 4030 l0 -240 57 0 58 0 -3 93 -2 92 70 3 c88 3 121 -15 167
-94 18 -31 45 -66 60 -77 31 -23 95 -27 132 -8 23 13 26 20 26 68 0 54 -8 64
-30 38 -24 -29 -60 -18 -104 31 -44 49 -81 73 -118 75 -13 1 7 5 44 9 173 21
215 172 66 235 -29 12 -79 15 -230 15 l-193 0 0 -240z m364 139 c20 -7 33 -20
37 -35 15 -60 -18 -74 -177 -74 l-119 0 0 60 0 60 114 0 c62 0 127 -5 145 -11z"/>
</g>
</svg>
